<?xml version="1.0" encoding="UTF-8"?>
<svg id="Layer_1" data-name="Layer 1" xmlns="http://www.w3.org/2000/svg" viewBox="0 0 4096 4096">
  <defs>
    <style>
      .cls-1 {
        fill: #fff;
      }
    </style>
  </defs>
  <path class="cls-1" d="m1237.39,652.47c-16.57.23-29.82,13.86-29.59,30.43.03,1.83.22,3.65.57,5.44l131.07,655.56-599.41-104.28c-16.33-2.86-31.88,8.07-34.74,24.4-1.4,8.02.51,16.27,5.31,22.85l421.8,579.95-349.88,99.94c-15.94,4.55-25.17,21.16-20.62,37.1,1.4,4.9,4.02,9.35,7.61,12.96l366.64,366.64-307.56,230.71c-13.26,9.95-15.94,28.76-5.99,42.02,3.93,5.24,9.48,9.05,15.78,10.85l355.04,101.46-149.65,274.38c-7.96,14.54-2.63,32.78,11.91,40.74,5.54,3.03,11.89,4.24,18.16,3.45l392.73-49.12c12.38,30.78,26.07,60.07,41.44,87.34,117.11,207.75,342.69,318.23,561.37,318.23,201.4,0,399.59-96.43,498.3-297.07l199.24,51.64c16.05,4.15,32.42-5.5,36.57-21.55.99-3.83,1.21-7.82.65-11.74l-23.45-163.89,331.3-25.5c16.53-1.3,28.87-15.75,27.56-32.28-.3-3.84-1.34-7.59-3.06-11.04l-153.69-307.44,278.95-126.79c15.09-6.86,21.77-24.65,14.91-39.74-2.24-4.93-5.77-9.17-10.22-12.25l-322.56-223.33,431.3-228.37c14.65-7.76,20.23-25.93,12.47-40.58-3.14-5.92-8.17-10.62-14.28-13.35l-475.73-211.49,267.52-615.29c6.6-15.21-.38-32.88-15.58-39.48-5.87-2.55-12.41-3.15-18.65-1.72l-693.08,160.02-52.64-552.69c-1.58-16.5-16.24-28.6-32.74-27.01-6.94.67-13.44,3.73-18.37,8.67l-429.6,429.6-650.05-433.35c-5.05-3.37-10.99-5.12-17.06-5.04Zm44.02,95.19l610.25,406.8c11.9,7.93,27.75,6.36,37.87-3.75l401.99-401.99,49.82,523.32c1.58,16.5,16.24,28.59,32.74,27.01,1.31-.13,2.61-.34,3.89-.63l668.4-154.28-255.68,588.04c-6.57,15.12.29,32.7,15.36,39.39l446.54,198.42-420.45,222.62c-14.64,7.77-20.22,25.94-12.45,40.58,2.24,4.23,5.47,7.86,9.4,10.59l319.69,221.33-259.14,117.82c-15.09,6.86-21.76,24.66-14.89,39.75.15.33.31.66.47.99l147.65,295.31-318.7,24.56c-16.53,1.26-28.91,15.68-27.65,32.21.05.66.12,1.31.22,1.97l21.57,151-146.54-38.04c21.12-57.31,39.01-115.35,54.04-173.68,16.82-65.24,29.8-130.84,40.03-196.31,101.43-14.74,179.83-102.13,179.83-207.5,0-94.78-63.3-175-149.94-200.94,0-.72,0-1.45,0-2.17-.07-27.58-.54-54.88-1.29-81.89,0-.26,0-.51,0-.76-.76-27.03-1.87-53.77-3.22-80.13-1.36-26.62-3-52.88-4.87-78.72-7.47-103.3-18.57-199.91-30.25-286.69-19.22-142.92-88.38-264.02-185.34-356.62-13.84-13.22-28.23-25.89-43.14-37.92-.01,0-.05,0-.06,0-14.91-12.03-30.28-23.48-46.13-34.29-.01,0-.04,0-.06,0-15.85-10.81-32.11-21.05-48.77-30.6-.01,0-.04,0-.06,0-16.66-9.55-33.72-18.48-51.05-26.73-.02,0-.04,0-.06,0-17.34-8.25-34.98-15.84-52.87-22.74-.02,0-.04,0-.06,0-17.89-6.91-36.02-13.17-54.34-18.7-.02,0-.04,0-.06,0-18.32-5.53-36.78-10.31-55.39-14.42-.02,0-.04,0-.06,0-18.61-4.11-37.32-7.55-56.1-10.2-.02,0-.04,0-.06,0-18.78-2.65-37.63-4.54-56.45-5.69-.02,0-.04,0-.06,0-150.67-9.2-302.19,30.47-419.69,130.89-58.75,50.21-108.5,115.44-145.37,196.19-13.82,30.28-25.82,62.75-35.81,97.42-16.65,57.79-27.71,121.7-32.18,191.91-.13,1-3.92,35.44-8.38,82.3-1.48,15.63-2.73,28.13-4.34,47.77-1.63,19.71-2.93,42.82-4.51,66.12-1.87,27.54-3.68,53.49-5.22,85.23-.73,14.95-1.44,29.1-2.05,44.84-.31,8.13-.55,16.35-.82,24.68-.68,20.64-1.24,41.45-1.64,63.13-.06,3.13-.18,6-.23,9.14-.09,5.41,0,11.13-.06,16.59-.13,10.68-.36,21.13-.41,32-86.8,25.83-150.23,106.1-150.23,200.99,0,103.3,75.31,189.33,173.86,206.56,12.37,91.31,30.31,179.96,56.74,260.37l-321.16,40.15,139.62-255.92c7.95-14.55,2.6-32.78-11.94-40.73-1.96-1.07-4.02-1.92-6.17-2.53l-333-95.13,286.87-215.18c13.27-9.94,15.97-28.75,6.03-42.02-.86-1.14-1.79-2.22-2.8-3.24l-355.1-355.1,342.14-97.71c15.93-4.58,25.14-21.2,20.56-37.13-.96-3.36-2.51-6.52-4.56-9.35l-403.4-554.74,569.57,99.06c16.33,2.85,31.88-8.08,34.72-24.42.64-3.66.59-7.41-.14-11.05l-125.5-627.43Zm120.69,166.12c-8.28.35-14.71,7.35-14.36,15.63.04.98.18,1.94.41,2.89l18.99,82.41c1.62,8.13,9.53,13.4,17.65,11.78,8.13-1.62,13.4-9.53,11.78-17.65-.05-.27-.12-.54-.18-.81l-18.99-82.41c-1.54-7.15-8-12.15-15.3-11.84Zm40.09,174.32c-8.28.34-14.72,7.33-14.37,15.62.04,1,.18,1.99.42,2.97l48.01,208.79c1.86,8.08,9.92,13.12,18,11.25,8.08-1.86,13.12-9.92,11.25-18l-48.01-208.79c-1.54-7.15-8-12.15-15.3-11.84Zm528.66,194.72c17.09-.36,34.3,0,51.52,1.06,103.36,6.31,207.19,37.8,298.71,90.15.01,0,.04,0,.06,0,15.24,8.72,30.11,18.04,44.61,27.9.01,0,.04,0,.06,0,14.49,9.86,28.57,20.29,42.2,31.24.01,0,.05,0,.06,0,13.63,10.96,26.8,22.51,39.45,34.52,25.33,24.05,48.6,50.2,69.28,78.25,51.72,70.14,87.43,152.27,99.76,243.96,20.24,150.38,38.47,329.8,38.86,521.16.03,13.64-.31,27.51-.47,41.27-.24,20.2-.61,40.49-1.29,60.9-.27,8.25-.65,16.57-1,24.85-.01.27-.05.55-.06.82-.88,20.58-1.91,41.22-3.28,61.96-.03.45-.03.9-.06,1.35-.2,3.1-.49,6.21-.7,9.32-.22,3.11-.48,6.21-.7,9.32-1.85,24.92-4,49.9-6.62,74.97-.26,2.54-.55,5.08-.82,7.62-2.93,27.11-6.29,54.27-10.2,81.48-18.64,130.15-48.69,260.72-95.43,387.04-3.23,8.74-7.13,17.59-11.31,27.14-.14.39-.28.78-.41,1.17-84.72,193.76-264.36,283.23-453.69,283.23s-403.75-100.84-509.08-287.69c-18.19-32.26-33.97-68.52-47.89-107.44-2.67-7.41-5.22-14.96-7.74-22.57-2.33-7.08-4.59-14.21-6.8-21.45-1.94-6.32-3.84-12.73-5.69-19.17-2.72-9.57-5.39-19.27-7.91-29.07-1.08-4.19-2.18-8.37-3.22-12.6-3.16-12.8-6.18-25.77-9.03-38.92-.41-1.9-.83-3.78-1.23-5.69-1.67-7.86-3.19-15.89-4.75-23.86-4.82-24.6-9.23-49.54-13.07-74.97-5-33.02-9.26-66.61-12.78-100.47-1.44-13.97-2.31-28.05-3.52-42.09-1.57-18.08-3.31-36.12-4.51-54.22-1.68-25.61-2.84-51.12-3.87-76.55-.28-6.77-.7-13.6-.94-20.34-.91-26.58-1.41-52.84-1.7-78.84-.06-5.72-.2-11.55-.23-17.23-.16-23.89.02-47.21.29-70.28.1-8.23.14-16.57.29-24.68.4-21.82.95-43.07,1.64-63.83.25-7.55.54-15.12.82-22.51.61-15.95,1.31-31.11,2.05-46.25,1.5-30.41,3.35-56.33,5.16-82.82,1.54-22.71,2.99-47.66,4.57-66.94,1.81-21.85,3.42-38.2,5.04-54.81,1.26-12.97,2.75-30.44,3.75-39.8.09-.82.03-.56.12-1.35,2.09-19.33,3.58-31.01,3.58-31.01.08-.62.14-1.25.18-1.88,11.82-185.66,70.63-318.03,154.86-407.79,12.02-12.81,24.52-24.76,37.51-35.87,91.06-77.82,205.93-115.21,325.55-117.7Zm-975.37,121.34c-8.27.56-14.52,7.71-13.96,15.98.21,3.05,1.33,5.96,3.24,8.34l153.98,201.05c5,6.61,14.41,7.92,21.02,2.92,6.61-5,7.92-14.41,2.92-21.02-.05-.06-.1-.13-.14-.19l-153.98-201.05c-2.73-3.67-6.98-5.89-11.55-6.04-.51-.03-1.02-.03-1.52,0Zm1224.84,58.56c-1.35.03-2.69.25-3.99.64-33.27,9.5-67.43,16.75-101.29,22.16-8.24.92-14.17,8.34-13.26,16.57.92,8.24,8.34,14.17,16.57,13.26.48-.05.96-.13,1.43-.23,34.87-5.57,70.13-13.03,104.75-22.92,8-2.18,12.71-10.43,10.53-18.43-1.81-6.63-7.88-11.18-14.75-11.06Zm-451.17,30.07c-8.27.5-14.57,7.61-14.07,15.89.44,7.29,6.06,13.2,13.31,14.01,0,0,115.06,14.38,256.04,3.58,8.28-.24,14.8-7.16,14.56-15.44-.24-8.28-7.16-14.8-15.44-14.56-.47.01-.94.05-1.4.11-137.71,10.56-250-3.46-250-3.46-.99-.14-1.99-.18-2.99-.12Zm565.53,146.77c-60.66.78-126.36,7.93-196.42,15.3-153.31,16.08-325.4,34.01-521.63,3.87h-.06c-40.6-6.42-79.2,21.9-85.52,62.72-6.27,40.79,21.94,79.31,62.72,85.58,85.3,13.13,166.82,17.94,243.61,17.94,117.61,0,224.19-11.23,316.47-20.87h.06c125.48-13.2,233.23-23.17,296.25-.53,38.81,13.9,81.99-6.5,95.95-45.31,13.97-38.82-6.42-81.99-45.25-95.95-49.9-17.95-105.51-23.52-166.18-22.74Zm.18,30.42c58.57-.74,110.9,4.4,155.86,20.57,23.59,8.48,35.61,34.02,27.14,57.56-8.48,23.56-34.01,35.63-57.56,27.2-75.16-27-184.07-14.26-309.55-1.06-92.29,9.63-197.66,20.69-313.36,20.69-75.55,0-155.49-4.73-239.04-17.58-24.76-3.81-41.44-26.59-37.63-51.35,3.85-24.67,26.93-41.49,51.23-37.63h.06c200.62,30.83,376.03,12.39,529.36-3.69h.06c70.06-7.37,134.86-13.98,193.43-14.71Zm-1124.96,14.07c-8.27.55-14.53,7.7-13.98,15.97.2,3.02,1.31,5.92,3.19,8.29l61.49,80.3c5.05,6.59,14.49,7.83,21.07,2.77,6.58-5.05,7.83-14.48,2.78-21.06l-61.49-80.25c-3.04-4.11-7.97-6.38-13.07-6.04Zm432.35,194.2c-2.88-.04-5.71.76-8.15,2.29-68.79,42.02-115.37,116.74-118.46,202.46-.05,1.88.24,3.74.88,5.51-2.22,25.02-.97,51.09,5.04,77.78,21.24,94.26,98.17,168.66,193.14,186.58h.06c157.11,29.6,295.6-90.73,295.6-243.02,0-12.77-1.52-24.88-3.46-36.69,1.54-2.74,2.17-5.9,1.82-9.03-8.11-71.99-47.03-134.61-103.28-174.38-6.77-4.78-16.14-3.17-20.92,3.6-4.78,6.76-3.18,16.11,3.57,20.9,43.71,30.9,72.47,78.79,84.11,132.94-65.21-10.83-130.59-15.43-196.13-13.77-1.92-.26-3.86-.4-5.8-.41-2.28.02-4.55.22-6.8.59-.72.03-1.45-.03-2.17,0-69.77,2.75-139.7,12.9-209.73,29.66,9.11-65.98,43.81-123.88,98.18-157.09,7.12-4.24,9.46-13.45,5.22-20.57-2.67-4.49-7.49-7.27-12.72-7.33Zm570.22,0c-2.88-.04-5.71.76-8.15,2.29-68.79,42.02-115.37,116.74-118.46,202.46-.05,1.88.24,3.74.88,5.51-2.22,25.02-.97,51.09,5.04,77.78,21.24,94.26,98.17,168.66,193.14,186.58h.06c157.11,29.6,295.6-90.73,295.6-243.02,0-12.77-1.52-24.88-3.46-36.69,1.54-2.74,2.17-5.9,1.82-9.03-8.11-71.99-47.03-134.61-103.28-174.38-6.77-4.78-16.14-3.17-20.92,3.6-4.78,6.76-3.18,16.11,3.57,20.9,43.71,30.9,72.47,78.79,84.11,132.94-65.21-10.83-130.59-15.43-196.13-13.77-1.92-.26-3.86-.4-5.8-.41-2.28.02-4.55.22-6.8.59-.72.03-1.45-.03-2.17,0-69.77,2.75-139.7,12.9-209.73,29.66,9.11-65.98,43.81-123.88,98.18-157.09,7.12-4.24,9.46-13.45,5.22-20.57-2.67-4.49-7.49-7.27-12.72-7.33Zm-396.25,184.82c53.7,1.09,107.27,6.81,160.78,16.24,1.61,10.14,3.34,20.26,3.34,30.54,0,134.2-120.56,239.82-260.08,213.54-82.93-15.64-150.91-81.38-169.46-163.71-4.94-21.96-4.76-42.98-3.34-63.66,59.97-15,119.78-25.27,179.42-30.01-6.64,23.96,7.41,48.76,31.37,55.4,3.91,1.08,7.95,1.63,12.01,1.63,24.86-.03,45-20.2,44.97-45.06,0-5.05-.86-10.07-2.53-14.84,1.17.02,2.35-.08,3.52-.06Zm570.22,0c53.7,1.09,107.27,6.81,160.78,16.24,1.61,10.14,3.34,20.26,3.34,30.54,0,134.2-120.56,239.82-260.08,213.54-82.93-15.64-150.91-81.38-169.46-163.71-4.94-21.96-4.76-42.98-3.34-63.66,59.97-15,119.78-25.27,179.42-30.01-6.64,23.96,7.41,48.76,31.37,55.4,3.91,1.08,7.95,1.63,12.01,1.63,24.86-.03,45-20.2,44.97-45.06,0-5.05-.86-10.07-2.53-14.84,1.17.02,2.35-.08,3.52-.06Zm-436.34,299.82c-8.29.13-14.9,6.95-14.77,15.24h0v180.07c0,40.02,9.97,71.48,26.44,93.43,16.47,21.96,39.84,34.11,63.6,34.11s47.13-12.16,63.6-34.11c16.47-21.96,26.44-53.42,26.44-93.43v-180.07c.12-8.29-6.51-15.1-14.79-15.22-8.29-.12-15.1,6.51-15.22,14.79,0,.14,0,.28,0,.42v180.07c0,35.01-8.79,59.82-20.46,75.38-11.67,15.56-25.81,22.16-39.57,22.16s-27.9-6.6-39.57-22.16c-11.67-15.56-20.46-40.37-20.46-75.38v-180.07c.13-8.29-6.48-15.11-14.77-15.24-.16,0-.31,0-.47,0Zm-584.34,15.01c1.09,89.63,5.16,182.95,14.83,275.5-60.69-19.11-105.51-72.97-105.51-140.21,0-61.65,37.83-112.21,90.68-135.29Zm1349.17.12c52.84,23.07,90.74,73.52,90.74,135.17,0,68.95-47.03,123.75-110.14,141.38.03-.27.02-.55.06-.82,7.32-57.97,12.42-115.65,15.65-172.68.02-.39.04-.78.06-1.17.32-5.6.42-11.11.7-16.71,1.15-23.06,2.17-46.07,2.75-68.87.05-2.13,0-4.2.06-6.33.08-3.34.05-6.63.12-9.96Zm-1145.48,6.04c-8.28.42-14.65,7.47-14.23,15.74.21,4.08,2.06,7.9,5.15,10.58,0,0,117.81,104.81,275.5,41.73,7.71-3.07,11.47-11.8,8.4-19.51-3.07-7.71-11.8-11.47-19.51-8.4,0,0-.02,0-.03.01-142.43,56.97-244.31-36.17-244.31-36.17-2.97-2.75-6.92-4.19-10.96-3.99Zm921.56,0c-3.88-.08-7.64,1.35-10.49,3.99,0,0-101.88,93.14-244.31,36.17-7.7-3.08-16.44.66-19.53,8.36-3.08,7.7.66,16.44,8.36,19.53,0,0,.02,0,.03.01,157.68,63.07,275.5-41.73,275.5-41.73,6.25-5.45,6.9-14.92,1.46-21.17-2.78-3.19-6.78-5.06-11.01-5.15Zm-469.4,512.66c-202.99,2.12-347.59,67.99-347.59,67.99-7.61,3.29-11.11,12.12-7.83,19.73,3.29,7.61,12.12,11.11,19.73,7.83.18-.08.35-.16.52-.24,0,0,324.45-147.26,678.31.18,7.44,3.64,16.43.56,20.08-6.88,3.64-7.44.56-16.43-6.88-20.08-.55-.27-1.13-.51-1.71-.71-91.61-38.17-181.29-57.28-264.3-64.42-31.13-2.68-61.33-3.7-90.33-3.4Z"/>
</svg>