<svg width="41" height="35" viewBox="0 0 41 35" fill="none" xmlns="http://www.w3.org/2000/svg">
<path d="M17.4217 3.64438L14.6232 4.56257C14.4005 4.6342 14.2521 4.82305 14.2521 5.03143C14.2521 5.23982 14.4005 5.42866 14.6232 5.5003L17.4217 6.41849L18.4683 8.8735C18.55 9.06886 18.7652 9.1991 19.0028 9.1991C19.2403 9.1991 19.4556 9.06886 19.5372 8.8735L20.5839 6.41849L23.3823 5.5003C23.605 5.42866 23.7535 5.23982 23.7535 5.03143C23.7535 4.82305 23.605 4.6342 23.3823 4.56257L20.5839 3.64438L19.5372 1.18937C19.4556 0.994009 19.2403 0.86377 19.0028 0.86377C18.7652 0.86377 18.55 0.994009 18.4683 1.18937L17.4217 3.64438ZM3.42199 26.6121C2.03389 27.8299 2.03389 29.8095 3.42199 31.0338L5.99033 33.2869C7.37842 34.5046 9.63501 34.5046 11.0305 33.2869L39.3343 8.45022C40.7224 7.23248 40.7224 5.25284 39.3343 4.02859L36.7659 1.78196C35.3778 0.564219 33.1213 0.564219 31.7257 1.78196L3.42199 26.6121ZM35.9717 6.24266L28.1776 13.0802L26.448 11.5629L34.2421 4.72537L35.9717 6.24266ZM0.556722 8.4958C0.222689 8.60651 0 8.88652 0 9.1991C0 9.51167 0.222689 9.79169 0.556722 9.90239L4.7507 11.2829L6.32436 14.9622C6.45055 15.2552 6.76974 15.4506 7.12604 15.4506C7.48235 15.4506 7.80153 15.2552 7.92772 14.9622L9.50139 11.2829L13.6954 9.90239C14.0294 9.79169 14.2521 9.51167 14.2521 9.1991C14.2521 8.88652 14.0294 8.60651 13.6954 8.4958L9.50139 7.11527L7.92772 3.436C7.80153 3.14296 7.48235 2.9476 7.12604 2.9476C6.76974 2.9476 6.45055 3.14296 6.32436 3.436L4.7507 7.11527L0.556722 8.4958ZM26.6856 25.1665C26.3515 25.2772 26.1288 25.5572 26.1288 25.8698C26.1288 26.1823 26.3515 26.4623 26.6856 26.573L30.8795 27.9536L32.4532 31.6329C32.5794 31.9259 32.8986 32.1213 33.2549 32.1213C33.6112 32.1213 33.9304 31.9259 34.0566 31.6329L35.6302 27.9536L39.8242 26.573C40.1582 26.4623 40.3809 26.1823 40.3809 25.8698C40.3809 25.5572 40.1582 25.2772 39.8242 25.1665L35.6302 23.7859L34.0566 20.1067C33.9304 19.8136 33.6112 19.6183 33.2549 19.6183C32.8986 19.6183 32.5794 19.8136 32.4532 20.1067L30.8795 23.7859L26.6856 25.1665Z" fill="black"/>
</svg>
