<?xml version="1.0" encoding="UTF-8"?>
<svg id="Layer_1" data-name="Layer 1" xmlns="http://www.w3.org/2000/svg" viewBox="0 0 4096 4096">
  <defs>
    <style>
      .cls-1 {
        fill: #010101;
      }
    </style>
  </defs>
  <path class="cls-1" d="m996.91,659.51c-174.81,0-317.37,142.56-317.37,317.37v158.68c.02,3.43.49,6.84,1.39,10.15l-.54-.08-119.17,637.22-.7,7.28c0,99.63,67.24,183.84,158.68,209.82v1119.16c0,174.81,142.56,317.37,317.37,317.37h2023.23c174.81,0,317.37-142.56,317.37-317.37v-1120.17c35.15-9.71,67.45-27.77,93.91-54.32,41.73-41.89,64.59-98.16,64.39-158.3l-119.63-641.87h-.08c.7-2.92,1.06-5.91,1.08-8.91v-158.68c0-174.81-142.56-317.37-317.37-317.37H996.91Zm0,79.34h2102.57c131.93,0,238.03,106.1,238.03,238.03v119.01H758.88v-119.01c0-131.93,106.1-238.03,238.03-238.03Zm59.51,79.34c-31.41,0-57.45,12.49-74.31,31.46-16.86,18.97-24.87,43.48-24.87,67.72s8.01,48.75,24.87,67.72c16.86,18.97,42.9,31.46,74.31,31.46s57.45-12.49,74.31-31.46c16.86-18.97,24.87-43.48,24.87-67.72s-8.01-48.75-24.87-67.72c-16.86-18.97-42.9-31.46-74.31-31.46Zm277.7,0c-31.41,0-57.45,12.49-74.31,31.46-16.86,18.97-24.87,43.48-24.87,67.72s8.01,48.75,24.87,67.72c16.86,18.97,42.9,31.46,74.31,31.46s57.45-12.49,74.31-31.46c16.86-18.97,24.87-43.48,24.87-67.72s-8.01-48.75-24.87-67.72c-16.86-18.97-42.9-31.46-74.31-31.46Zm277.7,0c-31.41,0-57.45,12.49-74.31,31.46-16.86,18.97-24.87,43.48-24.87,67.72s8.01,48.75,24.87,67.72c16.86,18.97,42.9,31.46,74.31,31.46s57.45-12.49,74.31-31.46c16.86-18.97,24.87-43.48,24.87-67.72s-8.01-48.75-24.87-67.72c-16.86-18.97-42.9-31.46-74.31-31.46Zm-555.4,39.67c21.49,0,35.12,7.34,44.71,18.13,9.59,10.79,14.8,25.95,14.8,41.38s-5.21,30.59-14.8,41.38c-9.59,10.79-23.22,18.13-44.71,18.13s-35.12-7.34-44.71-18.13c-9.59-10.79-14.8-25.95-14.8-41.38s5.21-30.59,14.8-41.38c9.59-10.79,23.22-18.13,44.71-18.13Zm277.7,0c21.49,0,35.12,7.34,44.71,18.13,9.59,10.79,14.8,25.95,14.8,41.38s-5.21,30.59-14.8,41.38c-9.59,10.79-23.22,18.13-44.71,18.13s-35.12-7.34-44.71-18.13c-9.59-10.79-14.8-25.95-14.8-41.38s5.21-30.59,14.8-41.38c9.59-10.79,23.22-18.13,44.71-18.13Zm277.7,0c21.49,0,35.12,7.34,44.71,18.13,9.59,10.79,14.8,25.95,14.8,41.38s-5.21,30.59-14.8,41.38c-9.59,10.79-23.22,18.13-44.71,18.13s-35.12-7.34-44.71-18.13c-9.59-10.79-14.8-25.95-14.8-41.38s5.21-30.59,14.8-41.38c9.59-10.79,23.22-18.13,44.71-18.13Zm-856.26,317.37h162.02v595.07h-273.28l111.27-595.07Zm201.69,0h277.7v595.07h-277.7v-595.07Zm317.37,0h277.7v595.07h-277.7v-595.07Zm317.37,0h277.7v595.07h-277.7v-595.07Zm317.37,0h277.7v595.07h-277.7v-595.07Zm317.37,0h277.7v595.07h-277.7v-595.07Zm317.37,0h277.7v595.07h-277.7v-595.07Zm317.37,0h277.7v595.07h-277.7v-595.07Zm317.37,0h162.02l111.57,595.07h-273.59v-595.07ZM642.04,1809.97h273.59c-9.65,67.37-66.8,119.01-136.91,119.01-6.81,0-13.3-1.08-19.84-2.01-8.2-1.19-16.18-3.11-23.86-5.66-.05-.02-.11.02-.15,0l-.08-.08c-15.05-5.02-28.94-12.57-41.22-22.08-.8-.62-1.54-1.3-2.32-1.94-5.3-4.29-10.26-8.93-14.88-13.95-1.33-1.47-2.53-3.05-3.8-4.57-3.73-4.41-7.3-8.93-10.46-13.79-2.49-3.9-4.56-8.09-6.66-12.24-1.58-3.08-3.38-6.01-4.73-9.22-4.36-10.53-7.01-21.81-8.68-33.47Zm317.14,0h273.82c-9.65,67.37-66.8,119.01-136.91,119.01s-127.27-51.65-136.91-119.01Zm317.37,0h273.82c-9.65,67.37-66.8,119.01-136.91,119.01s-127.27-51.65-136.91-119.01Zm317.37,0h273.82c-9.65,67.37-66.8,119.01-136.91,119.01s-127.27-51.65-136.91-119.01Zm317.37,0h273.82c-9.55,66.7-65.72,117.78-134.9,118.78-.77-.07-1.55-.1-2.32-.08-.52.03-1.04.08-1.55.15-69.25-.92-125.49-52.1-135.05-118.86Zm317.37,0h273.82c-9.65,67.37-66.8,119.01-136.91,119.01s-127.27-51.65-136.91-119.01Zm317.37,0h273.82c-9.65,67.37-66.8,119.01-136.91,119.01s-127.27-51.65-136.91-119.01Zm317.37,0h273.82c-9.65,67.37-66.8,119.01-136.91,119.01s-127.27-51.65-136.91-119.01Zm317.37,0h273.13c-4.62,29.87-17.71,57.32-38.97,78.64-10.2,10.23-21.82,18.38-34.32,24.72-.66.34-1.27.76-1.94,1.08-5.89,2.86-12.04,5.21-18.29,7.21-1.03.33-2.06.7-3.1,1.01-6.47,1.9-13.09,3.44-19.84,4.42-6.51.93-12.98,1.94-19.76,1.94-70.11,0-127.27-51.65-136.91-119.01Zm-1925.98,58.19c29.21,58.92,88.65,100.49,158.68,100.49s129.47-41.57,158.68-100.49c29.21,58.92,88.65,100.49,158.68,100.49s129.47-41.57,158.68-100.49c26.4,53.24,77.57,91.99,138.85,99.02v1270.95h-971.94c-76.91,0-138.85-61.94-138.85-138.85v-595.07c.15-10.95-8.6-19.96-19.55-20.12-10.95-.15-19.96,8.6-20.12,19.55,0,.19,0,.37,0,.56v595.07c0,98.35,80.17,178.52,178.52,178.52h1983.55c98.35,0,178.52-80.17,178.52-178.52v-1160.84c23.13,15.53,50.33,24.93,79.34,28.2v1152.48c0,131.93-106.1,238.03-238.03,238.03h-2023.23c-131.93,0-238.03-106.1-238.03-238.03v-1152.48c60.84-6.87,112.24-43.98,138.85-96.39,29.5,58.09,89.26,98.4,158.68,98.4s129.47-41.57,158.68-100.49Zm952.11,0c29.21,58.92,88.65,100.49,158.68,100.49s129.47-41.57,158.68-100.49c29.21,58.92,88.65,100.49,158.68,100.49s129.47-41.57,158.68-100.49c29.21,58.92,88.65,100.49,158.68,100.49s129.18-40.31,158.68-98.4c5.57,10.97,12.21,21.16,19.84,30.68v1198.35c0,76.91-61.94,138.85-138.85,138.85h-971.94v-1270.95c61.28-7.04,112.45-45.78,138.85-99.02Zm-1309.46,139.86c-10.95.17-19.7,9.19-19.53,20.14h0v39.67c-.15,10.95,8.6,19.96,19.55,20.12,10.95.15,19.96-8.6,20.12-19.55,0-.19,0-.37,0-.56v-39.67c.17-10.95-8.57-19.97-19.52-20.15-.21,0-.41,0-.62,0Zm0,158.68c-10.95.17-19.7,9.19-19.53,20.14h0v198.36c-.15,10.95,8.6,19.96,19.55,20.12,10.95.15,19.96-8.6,20.12-19.55,0-.19,0-.37,0-.56v-198.36c.17-10.95-8.57-19.97-19.52-20.15-.21,0-.41,0-.62,0Zm972.25,278.01c-24.79,0-45.88,10.01-59.43,25.26-13.55,15.25-19.91,34.8-19.91,54.08s6.36,38.84,19.91,54.08c13.55,15.25,34.63,25.26,59.43,25.26s45.88-10.01,59.43-25.26c13.55-15.25,19.91-34.8,19.91-54.08s-6.36-38.84-19.91-54.08c-13.55-15.25-34.63-25.26-59.43-25.26Zm357.04,0c-24.79,0-45.88,10.01-59.43,25.26-13.55,15.25-19.91,34.8-19.91,54.08s6.36,38.84,19.91,54.08c13.55,15.25,34.63,25.26,59.43,25.26s45.88-10.01,59.43-25.26c13.55-15.25,19.91-34.8,19.91-54.08s-6.36-38.84-19.91-54.08c-13.55-15.25-34.63-25.26-59.43-25.26Zm-357.04,39.67c14.88,0,23.55,4.86,29.83,11.93,6.28,7.07,9.84,17.27,9.84,27.74s-3.56,20.67-9.84,27.74c-6.28,7.07-14.95,11.93-29.83,11.93s-23.55-4.86-29.83-11.93c-6.28-7.07-9.84-17.27-9.84-27.74s3.56-20.67,9.84-27.74c6.28-7.07,14.95-11.93,29.83-11.93Zm357.04,0c14.88,0,23.55,4.86,29.83,11.93,6.28,7.07,9.84,17.27,9.84,27.74s-3.56,20.67-9.84,27.74c-6.28,7.07-14.95,11.93-29.83,11.93s-23.55-4.86-29.83-11.93c-6.28-7.07-9.84-17.27-9.84-27.74s3.56-20.67,9.84-27.74c6.28-7.07,14.95-11.93,29.83-11.93Z"/>
</svg>