<svg width="48" height="34" viewBox="0 0 48 34" fill="none" xmlns="http://www.w3.org/2000/svg">
<path d="M19 4.52179H28.5V8.68884H19V4.52179ZM17.8125 0.354736C15.8457 0.354736 14.25 1.75461 14.25 3.48003V9.73061C14.25 11.456 15.8457 12.8559 17.8125 12.8559H21.375V14.9394H2.375C1.06133 14.9394 0 15.8705 0 17.023C0 18.1754 1.06133 19.1065 2.375 19.1065H9.5V21.19H5.9375C3.9707 21.19 2.375 22.5899 2.375 24.3153V30.5659C2.375 32.2913 3.9707 33.6912 5.9375 33.6912H17.8125C19.7793 33.6912 21.375 32.2913 21.375 30.5659V24.3153C21.375 22.5899 19.7793 21.19 17.8125 21.19H14.25V19.1065H33.25V21.19H29.6875C27.7207 21.19 26.125 22.5899 26.125 24.3153V30.5659C26.125 32.2913 27.7207 33.6912 29.6875 33.6912H41.5625C43.5293 33.6912 45.125 32.2913 45.125 30.5659V24.3153C45.125 22.5899 43.5293 21.19 41.5625 21.19H38V19.1065H45.125C46.4387 19.1065 47.5 18.1754 47.5 17.023C47.5 15.8705 46.4387 14.9394 45.125 14.9394H26.125V12.8559H29.6875C31.6543 12.8559 33.25 11.456 33.25 9.73061V3.48003C33.25 1.75461 31.6543 0.354736 29.6875 0.354736H17.8125ZM7.125 29.5241V25.3571H16.625V29.5241H7.125ZM30.875 25.3571H40.375V29.5241H30.875V25.3571Z" fill="black"/>
</svg>
