<svg width="130" height="208" viewBox="0 0 130 208" fill="none" xmlns="http://www.w3.org/2000/svg">
<path d="M53.2585 24.801C53.1088 24.4486 52.9061 23.9024 52.7563 23.5588C52.5537 23.2064 52.307 22.7571 52.1572 22.5104C52.0075 22.2637 51.7608 21.8584 51.5581 21.6117C51.3555 21.3122 50.959 20.9157 50.7124 20.6162C50.4657 20.3166 50.0163 19.9201 49.7608 19.7175C49.4613 19.5149 49.012 19.1713 48.6684 18.9158C48.3688 18.7131 47.8226 18.4136 47.523 18.2638C47.2235 18.114 46.5715 17.8673 46.1751 17.7176C45.7786 17.6207 45.0826 17.418 44.6333 17.3652C44.2368 17.2682 43.4879 17.2154 42.9857 17.2154C42.4836 17.1625 41.8933 17.2154 41.5937 17.2154C41.2942 17.2683 40.8448 17.3123 40.5453 17.3652C40.2457 17.4621 39.6995 17.6119 39.303 17.7176C38.9506 17.8145 38.3075 18.114 37.911 18.2638C37.5145 18.4665 36.9154 18.81 36.563 19.0655C36.2635 19.2682 35.7173 19.7175 35.4177 19.9642C35.0653 20.2637 34.5719 20.7659 34.3252 21.0567C34.0257 21.4091 33.6733 21.9025 33.4794 22.202C33.2768 22.4487 32.9773 23.0037 32.8275 23.3473C32.6248 23.6998 32.3782 24.2989 32.2812 24.6425C32.1315 24.9949 31.9817 25.5411 31.9288 25.8407C31.876 26.1931 31.7791 26.7393 31.7262 27.0829C31.6733 27.4794 31.6733 32.1136 31.6733 41.4349C31.6733 50.7561 31.6733 55.3463 31.7262 55.7428C31.7791 56.0952 31.876 56.6943 31.9288 56.985C31.9817 57.3374 32.1315 57.8836 32.2812 58.2273C32.3782 58.5797 32.6337 59.1788 32.8275 59.5224C32.9773 59.8748 33.3297 60.421 33.5235 60.7646C33.7702 61.117 34.1755 61.6633 34.475 61.9628C34.7217 62.2624 35.2239 62.7117 35.5234 63.0112C35.7701 63.2139 36.2723 63.6103 36.5719 63.813C36.8714 64.0156 37.4176 64.3152 37.8141 64.509C38.1665 64.7116 38.7656 64.9583 39.1621 65.0552C39.5145 65.205 40.1136 65.3548 40.4043 65.4517C40.7567 65.5045 41.3999 65.6015 41.8492 65.6543C42.5012 65.7072 42.8976 65.7072 43.5937 65.6543C44.0958 65.6015 44.7918 65.5046 45.1355 65.4076C45.5319 65.3548 46.087 65.1609 46.3777 65.0552C46.6772 64.9583 47.1266 64.7557 47.3733 64.6588C47.6728 64.5618 48.0693 64.3064 48.3688 64.1125C48.6684 63.9628 49.0648 63.6632 49.3644 63.4606C49.6111 63.2579 50.0163 62.9143 50.263 62.6588C50.5626 62.4121 50.959 62.0069 51.1617 61.7073C51.4084 61.4606 51.7608 61.0113 51.9634 60.7118C52.1661 60.4122 52.4656 59.8131 52.6594 59.4695C52.8621 59.073 53.1087 58.4211 53.2057 58.0775C53.3554 57.681 53.5052 57.0291 53.6021 56.6326L53.7519 55.9366V26.9243L53.6021 26.1754C53.5052 25.779 53.3554 25.1799 53.2497 24.7834L53.2585 24.801ZM49.3203 55.6546L49.1706 56.2538C49.0736 56.6062 48.871 57.0995 48.7212 57.3991C48.6243 57.6986 48.3688 58.148 48.219 58.3506C48.0693 58.5973 47.6728 59.0466 47.3733 59.3462C47.0208 59.6986 46.5715 60.0422 46.2279 60.2448C45.9284 60.4474 45.479 60.6941 45.1795 60.791C44.9328 60.888 44.5275 61.0377 44.3337 61.0906C44.1399 61.1435 43.6817 61.1875 43.3381 61.2404C42.8888 61.2932 42.5364 61.2932 42.043 61.2404C41.6906 61.1875 41.1973 61.0906 40.8977 60.9937C40.5982 60.9408 40.2017 60.791 39.9991 60.6941C39.7964 60.5972 39.3471 60.3417 39.0475 60.1479C38.748 59.9981 38.2987 59.5488 37.9551 59.2492C37.6555 58.9497 37.3031 58.4475 37.1093 58.1568C36.9066 57.8572 36.66 57.311 36.5102 57.0114C36.4133 56.7119 36.2635 56.2097 36.2106 55.963L36.1137 55.4608V27.4001L36.2635 26.801C36.3164 26.5014 36.4661 25.9992 36.6159 25.7085C36.7128 25.409 36.9683 24.9068 37.215 24.616C37.4176 24.3165 37.7612 23.8143 38.0608 23.5676C38.3075 23.2681 38.7568 22.9156 39.0563 22.7218C39.303 22.572 39.7524 22.3254 39.955 22.2196C40.2017 22.1227 40.651 21.9729 40.9506 21.8672C41.2501 21.7703 41.6994 21.6646 41.999 21.6646C42.2457 21.6117 42.5452 21.6117 42.6509 21.6117C42.7567 21.6117 43.0474 21.6117 43.3998 21.6646C43.7522 21.7174 44.2456 21.8144 44.598 21.8672C44.8976 21.9641 45.3469 22.1668 45.6464 22.2637C45.946 22.4135 46.3953 22.713 46.6949 22.9156C46.9415 23.1183 47.3468 23.4619 47.5935 23.7174C47.7961 23.9641 48.0957 24.3165 48.2455 24.5632C48.3953 24.7658 48.6419 25.1623 48.7477 25.4618C48.8974 25.7614 49.1001 26.3076 49.197 26.6071L49.3468 27.2591V55.6723L49.3203 55.6546Z" fill="white"/>
<path d="M128.93 160.382C128.877 159.933 128.833 159.334 128.727 158.99C128.674 158.638 128.524 158.039 128.374 157.642C128.278 157.29 127.978 156.691 127.828 156.347C127.626 155.951 127.326 155.449 127.176 155.202C127.027 154.955 126.727 154.55 126.524 154.356C126.322 154.109 125.925 153.66 125.626 153.361C125.326 153.061 124.877 152.709 124.63 152.515C124.383 152.312 123.978 152.065 123.679 151.916C123.432 151.713 122.93 151.466 122.533 151.317C122.181 151.167 121.582 150.92 121.238 150.814C120.842 150.717 120.489 150.612 120.436 150.612C120.384 150.559 120.34 147.669 120.34 136.357C120.34 124.243 120.34 122.005 120.243 121.3C120.19 120.903 120.093 120.155 119.996 119.758C119.899 119.309 119.696 118.516 119.494 117.961C119.344 117.415 118.992 116.569 118.692 115.97C118.392 115.424 118.04 114.772 117.89 114.472C117.688 114.225 117.344 113.67 117.044 113.274C116.745 112.877 116.146 112.225 115.749 111.776C115.353 111.38 114.701 110.78 114.357 110.481C114.005 110.181 113.406 109.732 113.009 109.485C112.657 109.239 112.014 108.833 111.661 108.64C111.265 108.437 110.666 108.137 110.269 107.988C109.917 107.838 109.318 107.635 108.921 107.485C108.569 107.389 107.97 107.239 107.679 107.133C107.327 107.036 106.684 106.93 106.234 106.886C105.538 106.737 105.036 106.737 102.992 106.684H100.552L100.349 106.085C100.252 105.838 99.9966 105.186 99.8027 104.737C99.5561 104.34 99.2037 103.688 98.957 103.345C98.7103 102.992 98.1552 102.393 97.7147 101.953C97.2654 101.503 96.6663 100.957 96.3227 100.71C95.9703 100.508 95.3271 100.111 94.8778 99.8646C94.4285 99.6619 93.7325 99.3624 93.3801 99.2654C92.9836 99.1157 92.4814 98.9659 92.2347 98.913C91.9352 98.8602 91.4858 98.8161 91.1863 98.7633C90.8339 98.7104 88.0498 98.7104 83.3099 98.7104H75.9357V82.8078H118.807L119.159 82.6052C119.309 82.5083 119.608 82.3057 119.758 82.1559C119.855 82.0061 120.058 81.7594 120.155 81.5568L120.357 81.2044V1.70038L120.207 1.40083C120.154 1.25106 120.005 1.00437 119.908 0.854598C119.855 0.757685 119.661 0.607909 119.555 0.502186C119.406 0.405273 119.159 0.255497 118.956 0.149773L118.604 0L64.8171 0.0528595L11.0303 0L10.6779 0.149773C10.4753 0.246686 10.2286 0.396462 10.0788 0.502186C9.98191 0.599099 9.77928 0.748875 9.72642 0.854598C9.62951 1.00437 9.47973 1.25106 9.42687 1.40083L9.27709 1.70038V81.2044L9.47973 81.5568C9.57665 81.7594 9.77928 82.0061 9.87619 82.1559C10.026 82.3057 10.3255 82.5083 10.4753 82.6052L10.8277 82.8078H53.6985V98.7104H46.3243C41.5844 98.7104 38.8003 98.7104 38.4479 98.7633C38.1484 98.8161 37.6991 98.8602 37.3995 98.913C37.1528 98.9659 36.6506 99.1157 36.2542 99.2654C35.9018 99.3624 35.2058 99.6619 34.7564 99.8646C34.3071 100.111 33.664 100.517 33.3115 100.71C32.9591 100.957 32.36 101.512 31.9195 101.953C31.4702 102.402 30.924 103.001 30.6773 103.345C30.4306 103.697 30.0782 104.34 29.8315 104.737C29.6288 105.186 29.3822 105.829 29.2852 106.085L29.0826 106.684H26.6422C24.5982 106.737 24.096 106.737 23.4 106.886C22.9507 106.939 22.3075 107.036 21.9551 107.133C21.6555 107.23 21.0564 107.38 20.7128 107.485C20.3164 107.635 19.7173 107.838 19.3649 107.988C18.9684 108.137 18.3693 108.437 17.9728 108.64C17.6204 108.842 16.9773 109.239 16.6249 109.485C16.2284 109.732 15.6293 110.181 15.2769 110.481C14.9245 110.78 14.2813 111.38 13.8849 111.776C13.4884 112.225 12.8893 112.869 12.5898 113.274C12.2902 113.67 11.9378 114.225 11.744 114.472C11.5942 114.772 11.2418 115.424 10.9422 115.97C10.6427 116.569 10.2903 117.415 10.1405 117.961C9.93787 118.507 9.74404 119.309 9.63831 119.758C9.5414 120.155 9.43568 120.903 9.39162 121.3C9.29471 121.996 9.29471 124.243 9.29471 136.357C9.29471 147.669 9.24185 150.568 9.1978 150.612C9.14494 150.612 8.80134 150.709 8.39607 150.814C8.04365 150.911 7.44455 151.167 7.10095 151.317C6.70449 151.466 6.20231 151.713 5.95562 151.916C5.65607 152.065 5.25961 152.312 5.00411 152.515C4.75742 152.717 4.30809 153.061 4.00854 153.361C3.70899 153.66 3.31253 154.109 3.1099 154.356C2.90726 154.559 2.60771 154.955 2.45794 155.202C2.30816 155.449 2.00861 155.951 1.80597 156.347C1.6562 156.7 1.35665 157.299 1.25974 157.642C1.10996 158.039 0.960186 158.638 0.907325 158.99C0.810412 159.343 0.757547 159.942 0.704685 160.382C0.651824 160.779 0.651824 161.475 0.704685 161.924C0.757547 162.373 0.801601 162.973 0.907325 163.316C0.960186 163.669 1.10996 164.215 1.25974 164.611C1.35665 164.964 1.6562 165.607 1.85884 166.056C2.06147 166.453 2.40507 167.052 2.66057 167.351C2.86321 167.651 3.35658 168.197 3.709 168.594C4.06141 168.99 4.6605 169.492 4.95124 169.739C5.25079 169.942 5.70012 170.285 5.94681 170.391C6.14944 170.541 6.59877 170.743 6.94237 170.937C7.24192 171.087 7.78816 171.29 8.08771 171.386C8.44012 171.483 8.98635 171.633 9.32995 171.739C9.92905 171.889 10.1757 171.889 11.4709 171.889C12.766 171.889 13.0127 171.836 13.5677 171.739C13.9201 171.642 14.5192 171.492 14.81 171.386C15.1624 171.29 15.7086 171.087 16.0081 170.937C16.3077 170.787 16.8539 170.488 17.1535 170.285C17.453 170.082 17.9552 169.739 18.246 169.483C18.5455 169.281 18.9948 168.884 19.2415 168.585C19.4882 168.285 19.8935 167.836 20.0873 167.589C20.2899 167.343 20.5895 166.893 20.7833 166.594C20.9331 166.241 21.2326 165.695 21.3824 165.351C21.5322 164.999 21.7348 164.453 21.8317 164.153C21.8846 163.854 22.0344 163.351 22.0784 163.061C22.1313 162.708 22.1753 162.065 22.2282 161.563C22.2282 161.017 22.2282 160.365 22.1753 159.968C22.1225 159.616 22.0784 159.123 22.0256 158.876C21.9287 158.629 21.8229 158.074 21.6732 157.73C21.5762 157.378 21.3207 156.735 21.1269 156.383C20.9243 155.986 20.6247 155.431 20.378 155.14C20.1754 154.788 19.779 154.294 19.5323 153.995C19.2856 153.695 18.8803 153.299 18.6336 153.096C18.431 152.894 18.0345 152.594 17.7878 152.4C17.5411 152.25 17.0918 151.898 16.7394 151.748C16.387 151.546 15.8408 151.299 15.4972 151.149C15.1447 150.999 14.5985 150.797 14.2549 150.7L13.7087 150.55V136.639C13.6558 126.921 13.7087 122.481 13.7615 121.987C13.7615 121.591 13.8584 120.992 13.9642 120.542C14.0611 120.146 14.2637 119.494 14.3606 119.15C14.5104 118.754 14.8099 118.102 15.0566 117.653C15.2593 117.203 15.6557 116.56 15.9024 116.208C16.1491 115.855 16.5984 115.309 16.9508 114.965C17.3033 114.569 17.7966 114.12 18.0962 113.873C18.3429 113.67 18.7922 113.327 19.0917 113.124C19.3913 112.921 19.9904 112.578 20.4397 112.375C20.8362 112.173 21.5322 111.873 21.9375 111.723C22.3868 111.626 23.0299 111.424 23.3824 111.371C23.7348 111.274 24.4308 111.168 24.8801 111.168C25.3294 111.115 26.3779 111.071 27.2236 111.071H28.7214V111.221C28.7742 111.318 28.8183 111.617 28.8712 111.97C28.924 112.269 29.0738 112.816 29.2236 113.212C29.3205 113.565 29.5231 114.058 29.6729 114.357C29.7698 114.657 30.0694 115.106 30.2191 115.406C30.3689 115.705 30.6685 116.155 30.8711 116.401C31.0737 116.648 31.4173 117.053 31.6728 117.3C31.9195 117.6 32.3248 117.996 32.6243 118.199C32.871 118.445 33.3732 118.798 33.7168 119C34.0164 119.247 34.5626 119.547 34.8622 119.696C35.2146 119.846 35.7608 120.093 36.1044 120.199C36.4568 120.296 37.003 120.498 37.3466 120.551C37.6991 120.648 38.2453 120.754 38.5889 120.754C38.8885 120.807 40.4303 120.851 41.9809 120.851H44.8178V154.594L44.9676 154.946C45.0645 155.246 45.2142 155.449 45.4697 155.695C45.8221 156.048 45.9719 156.145 46.3155 156.242C46.5622 156.338 46.9146 156.391 47.1173 156.391C47.267 156.391 47.4697 156.391 47.4697 156.444C47.4697 156.444 45.9279 162.973 44.1306 170.849L40.7915 185.201H37.003C34.9062 185.201 32.8182 185.254 32.3688 185.298C31.8667 185.351 31.0737 185.395 30.5716 185.5C30.0694 185.597 29.2764 185.747 28.8271 185.897C28.3778 185.994 27.6818 186.197 27.2853 186.346C26.9329 186.443 26.2897 186.743 25.7876 186.945C25.3382 187.148 24.6951 187.448 24.3955 187.641C24.0431 187.844 23.5498 188.144 23.2502 188.293C22.9507 188.496 22.3516 188.892 21.9022 189.245C21.4529 189.597 20.8098 190.144 20.4573 190.487C20.0609 190.787 19.5058 191.333 19.2151 191.685C18.8627 192.082 18.3164 192.734 17.9728 193.183C17.6204 193.632 17.224 194.276 17.0213 194.531C16.8716 194.831 16.572 195.333 16.3694 195.676C16.1667 195.976 15.8672 196.628 15.6734 197.121C15.4707 197.571 15.1712 198.214 15.0743 198.619C14.9245 198.971 14.7218 199.667 14.6249 200.117C14.4752 200.566 14.3254 201.359 14.2285 201.861C14.1316 202.363 14.0258 203.209 14.0258 203.658C13.973 204.108 13.9289 204.707 13.9289 204.954C13.9289 205.2 13.9818 205.606 14.0258 205.755C14.1227 205.958 14.2285 206.205 14.2725 206.354C14.3694 206.451 14.5721 206.707 14.7218 206.857C14.9245 207.006 15.224 207.156 15.3738 207.253L15.7262 207.35H43.3376L43.6901 207.147C43.8927 207.05 44.1922 206.848 44.342 206.698C44.4918 206.548 44.6944 206.249 44.7913 206.046L44.9411 205.65V186.857L48.4828 171.651L52.0246 156.4H77.6449L81.1866 171.651L84.7284 186.857V205.65L84.8781 206.046C84.975 206.249 85.1777 206.548 85.3275 206.698C85.4772 206.848 85.7768 207.05 85.9794 207.147L86.3318 207.35H113.943L114.296 207.253C114.445 207.156 114.745 207.006 114.948 206.857C115.097 206.707 115.3 206.46 115.397 206.354C115.45 206.205 115.547 205.958 115.644 205.755C115.697 205.606 115.741 205.209 115.741 204.954C115.741 204.698 115.688 204.108 115.644 203.658C115.644 203.209 115.547 202.363 115.441 201.861C115.344 201.359 115.194 200.566 115.045 200.117C114.948 199.667 114.745 198.971 114.595 198.619C114.498 198.223 114.199 197.571 113.996 197.121C113.793 196.619 113.494 195.976 113.3 195.676C113.097 195.324 112.798 194.831 112.648 194.531C112.446 194.284 112.049 193.632 111.697 193.183C111.344 192.734 110.798 192.091 110.454 191.685C110.155 191.333 109.609 190.787 109.212 190.487C108.86 190.135 108.217 189.588 107.767 189.245C107.318 188.892 106.719 188.496 106.419 188.293C106.12 188.144 105.618 187.844 105.274 187.641C104.974 187.439 104.322 187.139 103.882 186.945C103.38 186.743 102.737 186.443 102.384 186.346C101.988 186.197 101.292 185.994 100.842 185.897C100.393 185.747 99.6001 185.597 99.0979 185.5C98.5957 185.404 97.8028 185.351 97.3006 185.298C96.8513 185.245 94.7545 185.201 92.6664 185.201H88.878L85.5389 170.849C83.7416 162.973 82.1998 156.444 82.1998 156.444C82.1998 156.391 82.4024 156.391 82.5522 156.391C82.7549 156.391 83.0984 156.338 83.3539 156.242C83.7064 156.145 83.8561 156.039 84.1997 155.695C84.4464 155.449 84.5962 155.246 84.7019 154.946L84.8517 154.594V120.851H87.6886C89.2304 120.851 90.781 120.798 91.0806 120.754C91.433 120.754 91.9792 120.657 92.3228 120.551C92.6752 120.498 93.2215 120.304 93.5651 120.199C93.9175 120.102 94.4637 119.846 94.8073 119.696C95.1069 119.547 95.6531 119.247 95.9527 119C96.3051 118.798 96.7984 118.454 97.0451 118.199C97.3447 117.996 97.7411 117.6 97.9966 117.3C98.2433 117.053 98.5957 116.648 98.7984 116.401C99.001 116.155 99.3006 115.705 99.4503 115.406C99.6001 115.106 99.8997 114.657 99.9966 114.357C100.146 114.058 100.349 113.556 100.446 113.212C100.596 112.816 100.745 112.261 100.798 111.97C100.851 111.617 100.895 111.318 100.948 111.221V111.071H102.446C103.292 111.071 104.34 111.124 104.789 111.168C105.239 111.168 105.935 111.265 106.287 111.371C106.64 111.424 107.283 111.617 107.732 111.723C108.128 111.873 108.824 112.173 109.23 112.375C109.679 112.578 110.278 112.921 110.578 113.124C110.877 113.327 111.327 113.67 111.573 113.873C111.873 114.12 112.375 114.569 112.719 114.965C113.071 115.318 113.52 115.864 113.767 116.208C114.014 116.551 114.419 117.203 114.613 117.653C114.86 118.102 115.159 118.745 115.309 119.15C115.406 119.503 115.608 120.146 115.705 120.542C115.802 120.992 115.908 121.591 115.908 121.987C115.961 122.489 116.005 126.921 115.961 136.639V150.55L115.415 150.7C115.062 150.797 114.516 150.999 114.172 151.149C113.82 151.299 113.274 151.546 112.93 151.748C112.578 151.898 112.128 152.25 111.882 152.4C111.635 152.603 111.23 152.902 111.036 153.096C110.789 153.299 110.384 153.695 110.137 153.995C109.891 154.294 109.485 154.797 109.291 155.14C109.045 155.44 108.745 155.986 108.543 156.383C108.34 156.735 108.093 157.378 107.996 157.73C107.847 158.083 107.75 158.629 107.644 158.876C107.591 159.123 107.547 159.625 107.494 159.968C107.441 160.365 107.441 161.017 107.441 161.563C107.494 162.065 107.538 162.708 107.591 163.061C107.644 163.36 107.794 163.862 107.838 164.153C107.935 164.453 108.137 164.999 108.287 165.351C108.437 165.704 108.736 166.25 108.886 166.594C109.089 166.893 109.388 167.343 109.582 167.589C109.785 167.836 110.181 168.285 110.428 168.585C110.675 168.884 111.124 169.281 111.424 169.483C111.723 169.73 112.225 170.082 112.516 170.285C112.816 170.488 113.362 170.787 113.661 170.937C113.961 171.087 114.507 171.29 114.86 171.386C115.159 171.483 115.758 171.633 116.102 171.739C116.648 171.836 116.904 171.889 118.199 171.889C119.494 171.889 119.74 171.889 120.34 171.739C120.692 171.642 121.238 171.492 121.582 171.386C121.881 171.29 122.428 171.087 122.727 170.937C123.08 170.734 123.529 170.541 123.723 170.391C123.969 170.294 124.419 169.942 124.718 169.739C125.018 169.492 125.617 168.99 125.96 168.594C126.313 168.197 126.806 167.642 127.009 167.351C127.256 167.052 127.608 166.453 127.811 166.056C128.013 165.607 128.313 164.964 128.41 164.611C128.56 164.215 128.709 163.66 128.762 163.316C128.859 162.964 128.912 162.365 128.965 161.924C129.018 161.475 129.018 160.779 128.965 160.382H128.93ZM14.7747 155.695C15.0743 155.898 15.5236 156.242 15.8672 156.594C16.2196 156.946 16.6161 157.396 16.7658 157.642C16.9685 157.889 17.1623 158.294 17.268 158.541C17.3737 158.788 17.5676 159.237 17.6204 159.589C17.7173 159.942 17.8231 160.488 17.8231 160.832C17.8759 161.281 17.8231 161.677 17.7702 162.127C17.6733 162.523 17.5676 163.078 17.4178 163.369C17.3209 163.669 17.0654 164.171 16.9156 164.462C16.713 164.708 16.3694 165.21 16.1139 165.457C15.8143 165.757 15.4179 166.153 15.1183 166.356C14.8716 166.506 14.5192 166.752 14.3166 166.805C14.1139 166.955 13.8673 167.052 13.7175 167.105C13.5677 167.157 13.2682 167.254 12.9686 167.307C12.766 167.404 12.2197 167.457 11.8233 167.51C11.3739 167.51 10.8718 167.51 10.5282 167.457C10.2286 167.404 9.77928 167.307 9.53259 167.21C9.23304 167.113 8.83658 166.964 8.58108 166.814C8.33439 166.717 7.92912 166.461 7.73529 166.312C7.53266 166.162 7.13619 165.862 6.93356 165.616C6.68687 165.369 6.33446 164.964 6.13182 164.673C5.92919 164.373 5.73536 163.977 5.62964 163.774C5.53272 163.572 5.38295 163.175 5.27722 162.876C5.18031 162.426 5.12745 162.127 5.12745 161.431C5.07459 160.682 5.07459 160.382 5.18031 159.889C5.27722 159.589 5.427 159.087 5.53272 158.797C5.62964 158.497 5.88513 158.048 6.03491 157.801C6.18468 157.554 6.53709 157.105 6.78378 156.849C7.08333 156.55 7.4798 156.198 7.68243 156.004C7.92912 155.854 8.33439 155.607 8.58108 155.457C8.82777 155.361 9.23304 155.211 9.42687 155.105C9.67355 155.052 10.0788 154.955 10.3255 154.902C10.5722 154.85 11.0744 154.805 11.418 154.805C11.7175 154.805 12.2197 154.858 12.5105 154.902C12.8629 154.955 13.3563 155.105 13.6558 155.202C14.0082 155.299 14.4575 155.554 14.7483 155.704L14.7747 155.695ZM40.5448 202.954H29.5319C21.4529 202.954 18.5631 202.901 18.5631 202.857C18.5631 202.857 18.616 202.46 18.7129 202.011C18.7658 201.562 19.0125 200.866 19.1622 200.363C19.312 199.914 19.5587 199.218 19.7613 198.822C19.9111 198.425 20.2635 197.773 20.5102 197.324C20.7569 196.927 21.1622 196.328 21.356 196.029C21.6027 195.729 22.052 195.183 22.3516 194.831C22.6511 194.478 23.1973 193.932 23.5497 193.632C23.9022 193.333 24.3955 192.884 24.748 192.681C25.0475 192.434 25.5937 192.082 25.9462 191.879C26.2986 191.632 26.8448 191.333 27.1884 191.183C27.4879 191.033 28.0342 190.787 28.3337 190.681C28.6861 190.584 29.2852 190.381 29.6817 190.232C30.131 190.135 30.827 189.985 31.2764 189.879C31.6728 189.826 32.3688 189.729 32.7741 189.677C33.1706 189.677 35.0648 189.624 37.0119 189.677H40.5007L40.5536 196.311V202.945L40.5448 202.954ZM89.0983 196.32L89.1511 189.685H92.64C94.5871 189.633 96.4813 189.685 96.8777 189.685C97.2742 189.738 97.9702 189.835 98.3755 189.888C98.8248 189.985 99.5208 190.135 99.9701 190.24C100.367 190.39 100.966 190.593 101.318 190.69C101.618 190.787 102.164 191.042 102.463 191.192C102.816 191.342 103.362 191.641 103.706 191.888C104.058 192.091 104.604 192.434 104.904 192.69C105.256 192.892 105.75 193.342 106.102 193.641C106.455 193.941 107.001 194.487 107.3 194.839C107.6 195.192 108.049 195.738 108.296 196.038C108.499 196.337 108.895 196.936 109.142 197.333C109.388 197.782 109.741 198.425 109.891 198.83C110.093 199.227 110.34 199.923 110.49 200.372C110.639 200.874 110.886 201.57 110.939 202.02C111.036 202.469 111.089 202.866 111.089 202.866C111.089 202.918 108.199 202.962 100.12 202.962H89.1071V196.328L89.0983 196.32ZM13.6822 78.4291V4.40514H115.97V78.4291H13.6822ZM71.4513 82.8167V98.7192H58.1918V82.8167H71.4513ZM38.5537 116.313C38.307 116.26 37.8576 116.111 37.5581 116.014C37.2585 115.917 36.8092 115.714 36.6066 115.617C36.3599 115.468 35.9546 115.221 35.7608 115.071C35.5141 114.868 35.1088 114.525 34.8622 114.269C34.6595 114.023 34.3159 113.617 34.1661 113.371C34.0164 113.124 33.7697 112.719 33.664 112.472C33.5142 112.173 33.3644 111.723 33.2675 111.38C33.1177 110.833 33.1177 110.631 33.1177 109.732C33.1177 108.886 33.1177 108.684 33.2675 108.137C33.3644 107.785 33.567 107.292 33.7168 106.992C33.8137 106.693 34.0692 106.296 34.219 106.041C34.3159 105.838 34.6683 105.494 34.871 105.239C35.1176 104.939 35.5229 104.587 35.7696 104.437C35.9722 104.287 36.4216 103.988 36.7211 103.838C37.0207 103.688 37.47 103.486 37.6638 103.442C37.9105 103.345 38.3158 103.239 38.6153 103.195C39.0647 103.142 41.0117 103.098 50.9321 103.098H62.6938V109.732L62.641 116.366H50.8264C40.906 116.366 38.9149 116.366 38.5625 116.313H38.5537ZM80.3761 151.951H49.267V120.798H80.3761V151.951ZM96.3755 111.38C96.2786 111.732 96.1289 112.181 95.9791 112.472C95.8822 112.719 95.6267 113.124 95.4769 113.371C95.3271 113.617 94.9747 114.023 94.7809 114.269C94.5342 114.516 94.1289 114.868 93.8822 115.071C93.6796 115.221 93.2831 115.468 93.0365 115.617C92.8338 115.714 92.3845 115.917 92.0849 116.014C91.7854 116.111 91.3361 116.26 91.0894 116.313C90.737 116.366 88.7458 116.366 78.8255 116.366H67.0109L66.958 109.732V103.098H78.7197C88.6401 103.098 90.5872 103.151 91.0365 103.195C91.3361 103.248 91.7325 103.345 91.988 103.442C92.1907 103.494 92.64 103.688 92.9307 103.838C93.2303 103.988 93.6796 104.287 93.8822 104.437C94.1289 104.587 94.5342 104.939 94.7809 105.239C94.9835 105.486 95.3271 105.838 95.4328 106.041C95.5826 106.287 95.8293 106.693 95.935 106.992C96.0848 107.292 96.2874 107.794 96.3844 108.137C96.5341 108.684 96.5341 108.886 96.5341 109.732C96.5341 110.631 96.5341 110.825 96.3844 111.38H96.3755ZM124.489 161.431C124.489 162.127 124.436 162.426 124.339 162.876C124.242 163.175 124.093 163.572 123.987 163.774C123.89 163.977 123.687 164.373 123.485 164.673C123.282 164.973 122.939 165.369 122.683 165.616C122.48 165.862 122.084 166.162 121.881 166.312C121.679 166.461 121.282 166.708 121.036 166.814C120.789 166.964 120.384 167.113 120.084 167.21C119.837 167.307 119.388 167.413 119.088 167.457C118.736 167.51 118.243 167.51 117.793 167.51C117.397 167.457 116.842 167.413 116.648 167.307C116.348 167.254 116.049 167.157 115.899 167.105C115.749 167.052 115.503 166.955 115.3 166.805C115.097 166.752 114.754 166.506 114.498 166.356C114.199 166.153 113.802 165.757 113.503 165.457C113.256 165.21 112.904 164.708 112.701 164.462C112.551 164.162 112.305 163.66 112.199 163.369C112.049 163.07 111.952 162.523 111.846 162.127C111.794 161.677 111.749 161.281 111.794 160.832C111.794 160.479 111.89 159.933 111.996 159.589C112.049 159.237 112.243 158.788 112.349 158.541C112.446 158.294 112.648 157.889 112.851 157.642C113.001 157.396 113.397 156.946 113.749 156.594C114.102 156.242 114.551 155.898 114.842 155.695C115.141 155.546 115.591 155.299 115.934 155.193C116.234 155.096 116.736 154.946 117.08 154.894C117.379 154.841 117.881 154.797 118.172 154.797C118.525 154.797 119.018 154.85 119.265 154.894C119.511 154.946 119.917 155.043 120.163 155.096C120.366 155.193 120.762 155.343 121.009 155.449C121.256 155.598 121.661 155.845 121.908 155.995C122.11 156.197 122.507 156.541 122.806 156.841C123.053 157.087 123.405 157.537 123.555 157.792C123.705 158.039 123.952 158.488 124.057 158.788C124.154 159.087 124.304 159.589 124.41 159.88C124.507 160.382 124.507 160.682 124.463 161.422L124.489 161.431Z" fill="white"/>
<path d="M76.4379 58.0951C76.5348 58.4475 76.7903 59.0906 76.9841 59.4871C77.1867 59.8395 77.4863 60.4386 77.6801 60.7293C77.8828 61.0289 78.2263 61.4782 78.4818 61.7249C78.6845 62.0244 79.0809 62.4209 79.3805 62.6764C79.6272 62.9231 80.0325 63.2755 80.2791 63.4781C80.5787 63.6808 80.9752 63.9803 81.2747 64.1301C81.5743 64.3327 81.9707 64.5794 82.2703 64.6763C82.517 64.7733 82.9663 64.9759 83.2658 65.0728C83.5654 65.1697 84.1116 65.3724 84.5081 65.4252C84.8605 65.5221 85.5565 65.6278 86.0499 65.6719C86.7459 65.7248 87.1424 65.7248 87.7943 65.6719C88.2436 65.619 88.8868 65.5221 89.2392 65.4693C89.5388 65.3724 90.1379 65.2226 90.4815 65.0728C90.8779 64.9759 91.477 64.7204 91.8294 64.5266C92.2259 64.3239 92.7809 64.0244 93.0717 63.8306C93.3712 63.6279 93.8734 63.2315 94.1201 63.0288C94.4196 62.7293 94.9218 62.28 95.1685 61.9804C95.4681 61.6809 95.8645 61.1346 96.12 60.7822C96.3227 60.4298 96.6663 59.8836 96.816 59.54C97.0187 59.1875 97.2654 58.5884 97.3623 58.2448C97.5121 57.8924 97.6618 57.3462 97.7147 57.0026C97.7676 56.703 97.8645 56.1039 97.9173 55.7603C97.9702 55.3639 97.9702 50.7297 97.9702 41.4524C97.9702 32.1752 97.9702 27.497 97.9173 27.1005C97.8645 26.7481 97.7676 26.2018 97.7147 25.8582C97.6618 25.5587 97.5121 25.0124 97.3623 24.66C97.2654 24.3076 97.0099 23.7085 96.816 23.3649C96.6663 23.0125 96.3667 22.4663 96.1641 22.2196C95.9615 21.92 95.6178 21.4179 95.3183 21.0743C95.0716 20.7747 94.5694 20.2725 94.2258 19.9818C93.9263 19.7351 93.38 19.2858 93.0805 19.0831C92.7281 18.8364 92.129 18.484 91.7325 18.2814C91.3361 18.1316 90.6841 17.8321 90.3405 17.7352C89.944 17.6382 89.389 17.4885 89.0982 17.3827C88.7987 17.3299 88.3494 17.2858 88.0498 17.233C87.7503 17.233 87.1512 17.1801 86.6578 17.233C86.1556 17.233 85.4155 17.2858 85.0103 17.3827C84.5609 17.4356 83.8649 17.6294 83.4685 17.7352C83.072 17.8849 82.42 18.1316 82.1205 18.2814C81.8209 18.4312 81.2747 18.7307 80.9752 18.9334C80.6227 19.18 80.1734 19.5325 79.8827 19.7351C79.636 19.9377 79.1867 20.3342 78.9312 20.6337C78.6845 20.9333 78.2792 21.3298 78.0854 21.6293C77.8827 21.876 77.6361 22.2813 77.4863 22.5279C77.3365 22.7746 77.0898 23.224 76.8872 23.5764C76.7374 23.9288 76.5348 24.475 76.385 24.8186C76.2881 25.2151 76.1383 25.8142 76.0326 26.2106L75.8828 26.9595V55.9718L76.0326 56.6678C76.1295 57.0643 76.2793 57.7162 76.429 58.1127L76.4379 58.0951ZM80.3232 27.2414L80.473 26.5895C80.5699 26.2899 80.7725 25.7437 80.9223 25.4442C81.0192 25.1446 81.2747 24.7481 81.4245 24.5455C81.5743 24.2988 81.8738 23.9464 82.0764 23.6997C82.3231 23.453 82.7284 23.1006 82.9751 22.898C83.2746 22.6953 83.724 22.3958 84.0235 22.246C84.3231 22.1491 84.7724 21.9465 85.0719 21.8496C85.4244 21.7967 85.9177 21.6998 86.2701 21.6469C86.6226 21.5941 86.9221 21.5941 87.019 21.5941C87.1159 21.5941 87.4155 21.5941 87.671 21.6469C87.9705 21.6469 88.4199 21.7438 88.7194 21.8496C89.019 21.9465 89.4683 22.0962 89.715 22.202C89.9176 22.2989 90.3669 22.5544 90.6136 22.7042C90.9132 22.9068 91.3625 23.2504 91.6092 23.5499C91.9087 23.7966 92.2611 24.2988 92.455 24.5984C92.7016 24.8979 92.9571 25.4001 93.0541 25.6908C93.2038 25.9904 93.3536 26.4926 93.4065 26.7833L93.5562 27.3824V55.4432L93.4593 55.9454C93.4065 56.192 93.2567 56.6942 93.1598 56.9938C93.01 57.2933 92.7633 57.8396 92.5607 58.1391C92.358 58.4387 92.0144 58.9408 91.7149 59.2316C91.3625 59.5311 90.9132 59.9805 90.6224 60.1302C90.3229 60.3329 89.8735 60.5796 89.6709 60.6765C89.4683 60.7734 89.0718 60.9232 88.7723 60.976C88.4727 61.0729 87.9705 61.1787 87.6269 61.2227C87.1247 61.2756 86.7811 61.2756 86.3318 61.2227C85.9794 61.1699 85.5301 61.1258 85.3362 61.0729C85.1424 61.0201 84.7372 60.8703 84.4905 60.7734C84.1909 60.6765 83.7416 60.421 83.442 60.2272C83.0896 60.0245 82.6403 59.6809 82.2967 59.3285C81.9971 59.0289 81.6007 58.5796 81.4509 58.3329C81.3011 58.1303 81.0544 57.681 80.9487 57.3814C80.799 57.0819 80.5963 56.5797 80.4994 56.2361L80.3496 55.637V27.2238L80.3232 27.2414Z" fill="white"/>
</svg>
