<svg width="60" height="45" viewBox="0 0 60 45" fill="none" xmlns="http://www.w3.org/2000/svg">
<g clip-path="url(#clip0_394_7)">
<path d="M23.7559 13.4764C23.6748 13.2862 23.5668 12.9874 23.4858 12.8026C23.3778 12.6124 23.2427 12.3679 23.1617 12.232C23.0807 12.0962 22.9456 11.8788 22.8376 11.7429C22.7296 11.5799 22.5135 11.3625 22.3785 11.1995C22.2434 11.0365 22.0004 10.8191 21.8653 10.7105C21.7033 10.6018 21.4602 10.4116 21.2766 10.2757C21.1145 10.167 20.8174 10.004 20.6554 9.9225C20.4933 9.84099 20.1422 9.70514 19.9262 9.62363C19.7101 9.56928 19.3374 9.4606 19.0944 9.43343C18.8783 9.37909 18.4732 9.35192 18.2031 9.35192C17.933 9.32475 17.6143 9.35192 17.4523 9.35192C17.2903 9.37909 17.0472 9.40626 16.8851 9.43343C16.7231 9.48777 16.426 9.56928 16.2153 9.62363C16.0263 9.67797 15.6752 9.84099 15.4645 9.9225C15.2485 10.0312 14.9244 10.2214 14.7353 10.3572C14.5733 10.4659 14.2762 10.7105 14.1142 10.8463C13.9251 11.0093 13.655 11.281 13.5254 11.4386C13.3634 11.6288 13.1743 11.9005 13.0663 12.0635C12.9582 12.1994 12.7962 12.4983 12.7152 12.6885C12.6071 12.8787 12.4721 13.2047 12.4181 13.3949C12.3371 13.5851 12.256 13.884 12.229 14.047C12.202 14.2372 12.148 14.5361 12.121 14.7208C12.094 14.9382 12.094 17.4542 12.094 22.5188C12.094 27.5834 12.094 30.0777 12.121 30.295C12.148 30.4852 12.202 30.8113 12.229 30.9689C12.256 31.1591 12.3371 31.4579 12.4181 31.6427C12.4721 31.8329 12.6071 32.1589 12.7152 32.3491C12.7962 32.5393 12.9852 32.8382 13.0933 33.023C13.2283 33.2132 13.4444 33.512 13.6064 33.6751C13.7415 33.8381 14.0115 34.0826 14.1736 34.2457C14.3086 34.3543 14.5787 34.5717 14.7407 34.6804C14.9028 34.7891 15.1999 34.9521 15.4105 35.0608C15.5996 35.1695 15.9237 35.3053 16.1397 35.3596C16.3288 35.4412 16.6529 35.5227 16.8095 35.577C16.9986 35.6042 17.3497 35.6585 17.5873 35.6857C17.9384 35.7129 18.1545 35.7129 18.5272 35.6857C18.7973 35.6585 19.1754 35.6042 19.359 35.5498C19.5751 35.5227 19.8722 35.414 20.0288 35.3596C20.1909 35.3053 20.4339 35.1966 20.569 35.1423C20.731 35.0879 20.9471 34.9521 21.1091 34.8434C21.2712 34.7619 21.4872 34.5989 21.6493 34.4902C21.7843 34.3815 22.0004 34.1913 22.1354 34.0555C22.2975 33.9196 22.5135 33.7022 22.6215 33.5392C22.7566 33.4034 22.9456 33.1588 23.0537 32.9958C23.1617 32.8328 23.3237 32.5067 23.4318 32.322C23.5398 32.1046 23.6748 31.7514 23.7289 31.5666C23.8099 31.3493 23.8909 30.996 23.9449 30.7841L24.0259 30.4037V14.6393L23.9449 14.2318C23.8909 14.0144 23.8099 13.6884 23.7559 13.4764ZM21.6277 30.2407L21.5466 30.5667C21.4926 30.7569 21.3846 31.0286 21.3036 31.1917C21.2496 31.3547 21.1145 31.5992 21.0335 31.7079C20.9525 31.8438 20.7364 32.0883 20.5744 32.2513C20.3853 32.4415 20.1422 32.6317 19.9532 32.7404C19.7911 32.8491 19.5481 32.9849 19.386 33.0393C19.251 33.0936 19.0349 33.1751 18.9269 33.2023C18.8243 33.2295 18.5758 33.2566 18.3868 33.2838C18.1437 33.311 17.9546 33.311 17.6846 33.2838C17.4955 33.2566 17.2254 33.2023 17.0634 33.148C16.9013 33.1208 16.6853 33.0393 16.5773 32.9849C16.4692 32.9306 16.2262 32.7947 16.0641 32.6861C15.9021 32.6045 15.659 32.36 15.4753 32.197C15.3133 32.034 15.1242 31.7623 15.0162 31.6047C14.9082 31.4416 14.7731 31.1428 14.6921 30.9797C14.6381 30.8167 14.5571 30.545 14.5301 30.4092L14.4761 30.1375V14.8893L14.5571 14.5632C14.5841 14.4002 14.6651 14.1285 14.7461 13.9709C14.8002 13.8079 14.9352 13.5362 15.0702 13.3786C15.1783 13.2156 15.3673 12.9439 15.5294 12.808C15.6644 12.645 15.9075 12.4548 16.0695 12.3461C16.2045 12.2646 16.4476 12.1288 16.5556 12.0744C16.6907 12.0201 16.9337 11.9386 17.0958 11.8842C17.2578 11.8299 17.5009 11.7755 17.663 11.7755C17.798 11.7484 17.96 11.7484 18.0141 11.7484C18.0681 11.7484 18.2301 11.7484 18.4192 11.7755C18.6082 11.8027 18.8783 11.8571 19.0673 11.8842C19.2294 11.9386 19.4725 12.0472 19.6345 12.1016C19.7966 12.1831 20.0396 12.3461 20.2017 12.4548C20.3367 12.5635 20.5528 12.7537 20.6878 12.8895C20.7958 13.0254 20.9579 13.2156 21.0389 13.3514C21.1199 13.4601 21.255 13.6775 21.309 13.8405C21.39 14.0035 21.498 14.3024 21.552 14.4654L21.6331 14.8187V30.257L21.6169 30.2461L21.6277 30.2407Z" fill="white"/>
<path d="M59.919 0.760778C59.892 0.679266 59.8109 0.548847 59.7569 0.467335C59.7299 0.412994 59.6219 0.331482 59.5679 0.27714C59.4869 0.222799 59.3518 0.141287 59.2438 0.0815119L59.0547 0L30 0.0326048L0.945265 0L0.756212 0.0815119C0.648181 0.135853 0.513144 0.217365 0.432121 0.27714C0.383507 0.326048 0.270076 0.407559 0.243068 0.467335C0.189053 0.548847 0.10803 0.679266 0.0810227 0.760778L0 0.923801V44.1305L0.10803 44.3207C0.162045 44.4294 0.270076 44.5653 0.324091 44.6468C0.405113 44.7283 0.567159 44.837 0.648182 44.8913L0.837234 45H59.1628L59.3518 44.8913C59.4328 44.837 59.5949 44.7283 59.6759 44.6468C59.7299 44.5653 59.838 44.4294 59.892 44.3207L60 44.1305V0.923801L59.919 0.760778ZM57.6287 42.6199H2.38207V2.39645H57.6287V42.6199Z" fill="white"/>
<path d="M36.2766 13.7756C36.3306 13.5908 36.4656 13.2539 36.5737 13.042C36.6817 12.8572 36.8437 12.542 36.9518 12.3899C37.0598 12.2323 37.2488 11.9932 37.3839 11.8682C37.4919 11.7106 37.708 11.5041 37.87 11.3682C38.0051 11.2378 38.2211 11.0531 38.3562 10.9444C38.5182 10.8357 38.7343 10.6781 38.8963 10.602C39.0584 10.4934 39.2744 10.3629 39.4365 10.314C39.5715 10.2651 39.8146 10.1564 39.9766 10.1075C40.1387 10.0586 40.4357 9.94994 40.6464 9.92277C40.8355 9.87386 41.2136 9.81409 41.4782 9.79235C41.8563 9.76518 42.067 9.76518 42.4181 9.79235C42.6612 9.81952 43.0069 9.87386 43.1959 9.90103C43.358 9.94994 43.682 10.0315 43.8657 10.1075C44.0818 10.1564 44.4058 10.2923 44.5949 10.3955C44.811 10.5042 45.108 10.6618 45.2647 10.7596C45.4267 10.8683 45.6968 11.0748 45.8318 11.1835C45.9939 11.3411 46.264 11.5802 46.399 11.7378C46.5611 11.8954 46.7771 12.1834 46.9122 12.3681C47.0202 12.5529 47.2092 12.8409 47.2903 13.0202C47.3983 13.205 47.5333 13.5202 47.5873 13.6995C47.6684 13.8842 47.7494 14.1723 47.7764 14.3516C47.8034 14.5092 47.8574 14.8244 47.8844 15.0037C47.9114 15.2102 47.9114 17.6501 47.9114 22.5354C47.9114 27.4207 47.9114 29.8823 47.8844 30.0888C47.8574 30.2736 47.8034 30.5616 47.7764 30.7409C47.7494 30.8985 47.6684 31.1865 47.5873 31.3713C47.5333 31.556 47.3983 31.8712 47.2903 32.0505C47.2092 32.2353 47.0472 32.5233 46.9392 32.6537C46.8311 32.8113 46.6421 33.0776 46.48 33.2569C46.345 33.4145 46.0749 33.6808 45.8913 33.8329C45.7292 33.9633 45.4321 34.197 45.2701 34.3057C45.081 34.4361 44.7569 34.6209 44.5409 34.7296C44.3248 34.8111 43.9737 34.9687 43.7901 35.0176C43.574 35.0665 43.2769 35.148 43.1203 35.2023C42.9582 35.2295 42.7152 35.2512 42.5531 35.2784C42.3911 35.2784 42.067 35.3056 41.8023 35.2784C41.5322 35.2784 41.1325 35.2512 40.9111 35.2023C40.668 35.1752 40.2899 35.0719 40.0792 35.0176C39.8632 34.9415 39.5121 34.8111 39.35 34.7296C39.188 34.648 38.8909 34.4905 38.7289 34.3872C38.5398 34.2568 38.2967 34.072 38.1401 33.9633C38.0051 33.8547 37.762 33.6482 37.627 33.4906C37.4919 33.333 37.2759 33.1265 37.1678 32.9689C37.0598 32.8385 36.9248 32.6266 36.8437 32.4961C36.7627 32.3657 36.6277 32.132 36.5196 31.9418C36.4386 31.7571 36.3306 31.4691 36.2496 31.2898C36.1956 31.0833 36.1145 30.7681 36.0605 30.5561L35.9795 30.1595V14.8896L36.0605 14.5255C36.1145 14.319 36.1956 13.9712 36.2766 13.7647V13.7756ZM38.3778 30.0127L38.4588 30.3551C38.5128 30.5127 38.6208 30.8007 38.7019 30.9583C38.7559 31.1159 38.8909 31.3224 38.9719 31.431C39.053 31.5615 39.215 31.7462 39.323 31.8766C39.4581 32.0071 39.6741 32.1918 39.8092 32.3005C39.9712 32.4092 40.2143 32.5668 40.3763 32.6429C40.5384 32.6918 40.7814 32.8004 40.9435 32.8494C41.1325 32.8765 41.4026 32.9309 41.5917 32.958C41.7807 32.9852 41.9428 32.9852 41.9968 32.9852C42.0508 32.9852 42.2128 32.9852 42.3479 32.958C42.5099 32.958 42.753 32.9091 42.915 32.8494C43.0771 32.8004 43.3201 32.7189 43.4552 32.6646C43.5632 32.6157 43.8063 32.4798 43.9413 32.3983C44.1034 32.2896 44.3464 32.1103 44.4815 31.9527C44.6435 31.8223 44.8326 31.556 44.9406 31.3984C45.0756 31.2408 45.2107 30.9746 45.2647 30.8224C45.3457 30.6648 45.4267 30.3986 45.4537 30.2464L45.5348 29.9312V15.1613L45.4808 14.895C45.4537 14.7646 45.3727 14.4983 45.3187 14.3407C45.2377 14.1831 45.1026 13.8951 44.9946 13.7375C44.8866 13.5799 44.6975 13.3137 44.5355 13.1615C44.3464 13.0039 44.1034 12.7648 43.9467 12.6887C43.7847 12.5801 43.5416 12.4496 43.4336 12.4007C43.3256 12.3518 43.1095 12.2703 42.9474 12.2431C42.7854 12.1942 42.5153 12.1345 42.3263 12.1127C42.0562 12.0856 41.8671 12.0856 41.6241 12.1127C41.435 12.1399 41.1919 12.1616 41.0839 12.1942C40.9813 12.2214 40.7598 12.3029 40.6248 12.3518C40.4627 12.4007 40.2197 12.5366 40.0576 12.6398C39.8686 12.7485 39.6255 12.9278 39.4365 13.1126C39.2744 13.2702 39.0584 13.5093 38.9773 13.6343C38.8963 13.743 38.7613 13.9766 38.7073 14.1342C38.6262 14.2918 38.5182 14.5581 38.4642 14.7374L38.3832 15.0526V30.0073L38.367 29.9964L38.3778 30.0127Z" fill="white"/>
</g>
<defs>
<clipPath id="clip0_394_7">
<rect width="60" height="45" fill="white"/>
</clipPath>
</defs>
</svg>
