<?xml version="1.0" encoding="UTF-8"?>
<svg id="Layer_1" data-name="Layer 1" xmlns="http://www.w3.org/2000/svg" viewBox="0 0 4096 4096">
  <defs>
    <style>
      .cls-1 {
        fill: #010101;
      }
    </style>
  </defs>
  <path class="cls-1" d="m2321.03,737.5c-1.46.05-2.91.17-4.35.38h-425.14c-21.6-.31-39.36,16.96-39.67,38.56-.31,21.6,16.96,39.36,38.56,39.67.37,0,.74,0,1.11,0h335.83l-1341.33,1341.33c-15.58,14.96-16.09,39.73-1.13,55.31,14.96,15.58,39.73,16.09,55.31,1.13.38-.37.76-.74,1.13-1.13l1341.33-1341.33v335.83c-.31,21.6,16.96,39.36,38.56,39.67,21.6.31,39.36-16.96,39.67-38.56,0-.37,0-.74,0-1.11v-425.29c2.96-21.4-11.99-41.15-33.39-44.11-2.15-.3-4.32-.42-6.49-.35Zm548.36.38c-21.6,0-39.11,17.51-39.11,39.11v2503.3h-156.46v-1799.24c0-21.6-17.51-39.11-39.11-39.11h-469.37c-21.6,0-39.11,17.51-39.11,39.11v1799.24h-156.46v-1173.42c0-21.6-17.51-39.11-39.11-39.11h-469.37c-21.6,0-39.11,17.51-39.11,39.11v1173.42h-156.46v-625.82c0-21.6-17.51-39.11-39.11-39.11h-469.37c-21.6,0-39.11,17.51-39.11,39.11v625.82h-117.34c-21.6-.31-39.36,16.96-39.67,38.56-.31,21.6,16.96,39.36,38.56,39.67.37,0,.74,0,1.11,0h2894.44c21.6.31,39.36-16.96,39.67-38.56.31-21.6-16.96-39.36-38.56-39.67-.37,0-.74,0-1.11,0h-117.34V776.99c0-21.6-17.51-39.11-39.11-39.11h-469.37Zm39.11,78.23h391.14v2464.18h-391.14V816.11Zm97.48,77.92c-10.8.17-19.42,9.06-19.25,19.86h0v78.23c-.15,10.8,8.48,19.68,19.28,19.83,10.8.15,19.68-8.48,19.83-19.28,0-.18,0-.37,0-.55v-78.23c.17-10.8-8.45-19.69-19.25-19.86-.2,0-.41,0-.61,0Zm0,195.57c-10.8.17-19.42,9.06-19.25,19.86h0v156.46c-.15,10.8,8.48,19.68,19.28,19.83,10.8.15,19.68-8.48,19.83-19.28,0-.18,0-.37,0-.55v-156.46c.17-10.8-8.45-19.69-19.25-19.86-.2,0-.41,0-.61,0Zm0,273.8c-10.8.17-19.42,9.06-19.25,19.86h0v1799.24c-.15,10.8,8.48,19.68,19.28,19.83,10.8.15,19.68-8.48,19.83-19.28,0-.18,0-.37,0-.55v-1799.24c.17-10.8-8.45-19.69-19.25-19.86-.2,0-.41,0-.61,0Zm-801.53,156.76h391.14v1760.13h-391.14v-1760.13Zm97.48,77.92c-10.8.17-19.42,9.06-19.25,19.86h0v78.23c-.15,10.8,8.48,19.68,19.28,19.83,10.8.15,19.68-8.48,19.83-19.28,0-.18,0-.37,0-.55v-78.23c.17-10.8-8.45-19.69-19.25-19.86-.2,0-.41,0-.61,0Zm0,195.57c-10.8.17-19.42,9.06-19.25,19.86h0v156.46c-.15,10.8,8.48,19.68,19.28,19.83s19.68-8.48,19.83-19.28c0-.18,0-.37,0-.55v-156.46c.17-10.8-8.45-19.69-19.25-19.86-.2,0-.41,0-.61,0Zm0,273.8c-10.8.17-19.42,9.06-19.25,19.86h0v1095.19c-.15,10.8,8.48,19.68,19.28,19.83s19.68-8.48,19.83-19.28c0-.18,0-.37,0-.55v-1095.19c.17-10.8-8.45-19.69-19.25-19.86-.2,0-.41,0-.61,0Zm-801.53,78.53h391.14v1134.31h-391.14v-1134.31Zm97.48,77.92c-10.8.17-19.42,9.06-19.25,19.86h0v78.23c-.15,10.8,8.48,19.68,19.28,19.83,10.8.15,19.68-8.48,19.83-19.28,0-.18,0-.37,0-.55v-78.23c.17-10.8-8.45-19.69-19.25-19.86-.2,0-.41,0-.61,0Zm0,195.57c-10.8.17-19.42,9.06-19.25,19.86h0v743.17c-.15,10.8,8.48,19.68,19.28,19.83s19.68-8.48,19.83-19.28c0-.18,0-.37,0-.55v-743.17c.17-10.8-8.45-19.69-19.25-19.86-.2,0-.41,0-.61,0Zm-801.53,274.1h391.14v586.71h-391.14v-586.71Zm97.48,77.92c-10.8.17-19.42,9.06-19.25,19.86h0v78.23c-.15,10.8,8.48,19.68,19.28,19.83,10.8.15,19.68-8.48,19.83-19.28,0-.18,0-.37,0-.55v-78.23c.17-10.8-8.45-19.69-19.25-19.86-.2,0-.41,0-.61,0Zm0,195.57c-10.8.17-19.42,9.06-19.25,19.86h0v234.68c-.15,10.8,8.48,19.68,19.28,19.83,10.8.15,19.68-8.48,19.83-19.28,0-.18,0-.37,0-.55v-234.68c.17-10.8-8.45-19.69-19.25-19.86-.2,0-.41,0-.61,0Z"/>
</svg>