<svg width="17" height="16" viewBox="0 0 17 16" fill="none" xmlns="http://www.w3.org/2000/svg">
<path fill-rule="evenodd" clip-rule="evenodd" d="M16.3918 7.96382C16.3918 12.2804 12.8985 15.7731 8.58247 15.7731C4.2659 15.7731 0.773193 12.2798 0.773193 7.96382C0.773193 3.64724 4.26649 0.154541 8.58247 0.154541C12.899 0.154541 16.3918 3.64784 16.3918 7.96382ZM12.0345 5.48588C12.2729 5.72421 12.2729 6.11052 12.0345 6.34872L7.94163 10.4418C7.70331 10.68 7.31711 10.68 7.07879 10.4418L5.1304 8.49325C4.89208 8.25505 4.89208 7.86873 5.1304 7.63053C5.3686 7.39221 5.75492 7.39221 5.99312 7.63053L7.51015 9.14756L11.1717 5.48588C11.41 5.24768 11.7963 5.24768 12.0345 5.48588ZM8.58247 1.37474C12.2241 1.37474 15.1716 4.32169 15.1716 7.96382C15.1716 11.6055 12.2246 14.5529 8.58247 14.5529C4.94082 14.5529 1.99339 11.6059 1.99339 7.96382C1.99339 4.32217 4.94034 1.37474 8.58247 1.37474Z" fill="black"/>
</svg>
