<?xml version="1.0" encoding="UTF-8"?>
<svg id="svg6" xmlns="http://www.w3.org/2000/svg" viewBox="0 0 653.5 74.94">
  <defs>
    <style>
      .cls-1 {
        fill: #fff;
      }
    </style>
  </defs>
  <g id="g4">
    <path id="path2" class="cls-1" d="m2.25,0C1.07,0,0,.96,0,2.24v10.6c0,1.29,1.07,2.25,2.25,2.25h35.55v57.6c0,1.18.96,2.25,2.24,2.25h10.6c1.29,0,2.25-1.07,2.25-2.25V15.09h35.55c1.18,0,2.25-.96,2.25-2.25V2.24c0-1.28-1.07-2.24-2.25-2.24H2.25Zm104.11,0c-1.18,0-2.25.96-2.25,2.24v10.6c0,1.29,1.07,2.25,2.25,2.25h85.43c1.29,0,2.36-.96,2.36-2.25V2.24c0-1.28-1.07-2.24-2.36-2.24h-85.43Zm131.08,0c-16.49,0-29.87,13.38-29.87,29.87v15.2c0,16.49,13.38,29.87,29.87,29.87h57.81c1.29,0,2.36-1.07,2.36-2.25v-10.6c0-1.28-1.07-2.24-2.36-2.24h-57.81c-8.14,0-14.78-6.64-14.78-14.78v-15.2c0-8.14,6.64-14.78,14.78-14.78h57.81c1.29,0,2.36-.96,2.36-2.25V2.24c0-1.17-1.07-2.24-2.36-2.24h-57.81Zm80.09,0c-1.18,0-2.25.96-2.25,2.24v70.45c0,1.18,1.07,2.25,2.25,2.25h10.6c1.28,0,2.25-1.07,2.25-2.25v-27.62h37.04c4.07,0,7.92,2.25,9.96,5.78l12.95,22.91c.43.75,1.18,1.18,2.04,1.18h12.1c1.82,0,2.89-1.92,2.03-3.42l-15.95-28.05c-1.29-2.25-2.78-4.29-4.6-6,1.82-1.71,3.31-3.75,4.6-6l15.95-28.05C407.36,1.92,406.29,0,404.47,0h-12.1c-.86,0-1.61.43-2.04,1.17l-12.95,22.92c-2.04,3.53-5.89,5.78-9.96,5.78h-37.04V2.24C330.38.96,329.41,0,328.13,0h-10.6Zm107.97,0c-1.18,0-2.25.96-2.25,2.24v70.45c0,1.18,1.07,2.25,2.25,2.25h10.6c1.29,0,2.25-1.07,2.25-2.25V2.24c0-1.28-.96-2.24-2.25-2.24h-10.6Zm34.95,0c-1.17,0-2.24.96-2.24,2.24v10.6c0,1.29,1.07,2.25,2.24,2.25h85.44c1.29,0,2.36-.96,2.36-2.25V2.24c0-1.28-1.07-2.24-2.36-2.24h-85.44Zm105.26,0c-1.18,0-2.25.96-2.25,2.24v10.6c0,1.29,1.07,2.25,2.25,2.25h85.43c1.29,0,2.36-.96,2.36-2.25V2.24c0-1.28-1.07-2.24-2.36-2.24h-85.43ZM106.36,29.87c-1.18,0-2.25,1.07-2.25,2.35v40.47c0,1.18,1.07,2.25,2.25,2.25h85.43c1.29,0,2.36-1.07,2.36-2.25v-10.6c0-1.28-1.07-2.24-2.36-2.24h-72.59v-14.78h57.5c1.28,0,2.25-1.07,2.25-2.35v-10.5c0-1.28-.97-2.35-2.25-2.35h-70.34Zm354.09,0c-1.17,0-2.24,1.07-2.24,2.35v40.47c0,1.18,1.07,2.25,2.24,2.25h85.44c1.29,0,2.36-1.07,2.36-2.25v-10.6c0-1.28-1.07-2.24-2.36-2.24h-72.59v-14.78h57.49c1.29,0,2.25-1.07,2.25-2.35v-10.5c0-1.28-.96-2.35-2.25-2.35h-70.34Zm105.26,0c-1.18,0-2.25,1.07-2.25,2.35v40.47c0,1.18,1.07,2.25,2.25,2.25h85.43c1.29,0,2.36-1.07,2.36-2.25v-10.6c0-1.28-1.07-2.24-2.36-2.24h-72.59v-14.78h57.5c1.28,0,2.25-1.07,2.25-2.35v-10.5c0-1.28-.97-2.35-2.25-2.35h-70.34Z"/>
  </g>
</svg>