<svg width="39" height="35" viewBox="0 0 39 35" fill="none" xmlns="http://www.w3.org/2000/svg">
<path d="M26.8125 17.725C26.8125 19.2085 26.7211 20.6385 26.5611 22.0017H12.4389C12.2713 20.6385 12.1875 19.2085 12.1875 17.725C12.1875 16.2415 12.2789 14.8115 12.4389 13.4483H26.5611C26.7287 14.8115 26.8125 16.2415 26.8125 17.725ZM29.0062 13.4483H38.383C38.7867 14.8182 39 16.2482 39 17.725C39 19.2018 38.7867 20.6318 38.383 22.0017H29.0062C29.1662 20.6252 29.25 19.1951 29.25 17.725C29.25 16.2549 29.1662 14.8249 29.0062 13.4483ZM37.5832 11.3099H28.6939C27.9322 7.03992 26.424 3.46485 24.4816 1.17948C30.4459 2.56273 35.298 6.35832 37.5756 11.3099H37.5832ZM26.226 11.3099H12.774C13.2387 8.87757 13.9547 6.72585 14.8307 4.98175C15.6305 3.40471 16.5217 2.26203 17.3824 1.54033C18.2355 0.832 18.9439 0.618164 19.5 0.618164C20.0561 0.618164 20.7645 0.832 21.6176 1.54033C22.4783 2.26203 23.3695 3.40471 24.1693 4.98175C25.0529 6.71916 25.7613 8.87088 26.226 11.3099ZM10.3061 11.3099H1.4168C3.70195 6.35832 8.54648 2.56273 14.5184 1.17948C12.576 3.46485 11.0678 7.03992 10.3061 11.3099ZM0.616992 13.4483H9.99375C9.83379 14.8249 9.75 16.2549 9.75 17.725C9.75 19.1951 9.83379 20.6252 9.99375 22.0017H0.616992C0.213281 20.6318 0 19.2018 0 17.725C0 16.2482 0.213281 14.8182 0.616992 13.4483ZM14.8307 30.4616C13.9471 28.7242 13.2387 26.5725 12.774 24.1401H26.226C25.7613 26.5725 25.0453 28.7242 24.1693 30.4616C23.3695 32.0386 22.4783 33.1813 21.6176 33.903C20.7645 34.618 20.0561 34.8319 19.5 34.8319C18.9439 34.8319 18.2355 34.618 17.3824 33.9097C16.5217 33.188 15.6305 32.0453 14.8307 30.4683V30.4616ZM10.3061 24.1401C11.0678 28.4101 12.576 31.9852 14.5184 34.2706C8.54648 32.8873 3.70195 29.0917 1.4168 24.1401H10.3061ZM37.5832 24.1401C35.298 29.0917 30.4535 32.8873 24.4893 34.2706C26.4316 31.9852 27.9322 28.4101 28.7016 24.1401H37.5832Z" fill="black"/>
</svg>
