<svg xmlns="http://www.w3.org/2000/svg"  viewBox="0 0 100 100" width="100px" height="100px"><path d="M 25 17 C 20.593562 17 17 20.593562 17 25 L 17 75 C 17 79.406438 20.593562 83 25 83 L 75 83 C 79.406438 83 83 79.406438 83 75 L 83 25 C 83 20.593562 79.406438 17 75 17 L 25 17 z M 25 19 L 75 19 C 78.325562 19 81 21.674438 81 25 L 81 28 L 73.5 28 A 0.50005 0.50005 0 1 0 73.5 29 L 81 29 L 81 75 C 81 78.325562 78.325562 81 75 81 L 25 81 C 21.674438 81 19 78.325562 19 75 L 19 29 L 59.5 29 A 0.50005 0.50005 0 1 0 59.5 28 L 19 28 L 19 25 C 19 21.674438 21.674438 19 25 19 z M 62.5 28 A 0.50005 0.50005 0 1 0 62.5 29 L 68.5 29 A 0.50005 0.50005 0 1 0 68.5 28 L 62.5 28 z M 24.5 36 A 0.50005 0.50005 0 0 0 24 36.5 L 24 40.5 A 0.50005 0.50005 0 0 0 24.5 41 L 43.5 41 A 0.50005 0.50005 0 0 0 44 40.5 L 44 36.5 A 0.50005 0.50005 0 0 0 43.5 36 L 24.5 36 z M 25 37 L 43 37 L 43 40 L 25 40 L 25 37 z M 40.5 47 A 0.50005 0.50005 0 0 0 40 47.5 L 40 51.5 A 0.50005 0.50005 0 0 0 40.5 52 L 59.5 52 A 0.50005 0.50005 0 0 0 60 51.5 L 60 47.5 A 0.50005 0.50005 0 0 0 59.5 47 L 40.5 47 z M 41 48 L 59 48 L 59 51 L 41 51 L 41 48 z M 56.5 58 A 0.50005 0.50005 0 0 0 56 58.5 L 56 62.5 A 0.50005 0.50005 0 0 0 56.5 63 L 75.5 63 A 0.50005 0.50005 0 0 0 76 62.5 L 76 58.5 A 0.50005 0.50005 0 0 0 75.5 58 L 56.5 58 z M 57 59 L 75 59 L 75 62 L 57 62 L 57 59 z M 28.5 69 A 0.50005 0.50005 0 0 0 28 69.5 L 28 73.5 A 0.50005 0.50005 0 0 0 28.5 74 L 47.5 74 A 0.50005 0.50005 0 0 0 48 73.5 L 48 69.5 A 0.50005 0.50005 0 0 0 47.5 69 L 28.5 69 z M 29 70 L 47 70 L 47 73 L 29 73 L 29 70 z"/></svg>